<?xml version="1.0" encoding="utf-8"?>
<!-- Generator: Adobe Illustrator 27.5.0, SVG Export Plug-In . SVG Version: 6.00 Build 0)  -->
<svg version="1.1" id="Layer_2" xmlns="http://www.w3.org/2000/svg" xmlns:xlink="http://www.w3.org/1999/xlink" x="0px" y="0px"
	 viewBox="0 0 700 400" style="enable-background:new 0 0 700 400;" xml:space="preserve">
<g>
	<rect style="fill:#FFFFFF;" width="700" height="400"/>
	<g>
		<g>
			<g>
				<rect x="293.773" y="274.909" style="fill:#616D7D;" width="90.443" height="49.978"/>
				<path style="fill:#7F92A5;" d="M406.264,324.888H271.725c-3.717,0-6.73-3.009-6.73-6.72l0,0c0-3.711,3.013-6.72,6.73-6.72
					h134.539c3.717,0,6.73,3.009,6.73,6.72l0,0C412.994,321.879,409.981,324.888,406.264,324.888z"/>
				<rect x="293.773" y="274.909" style="opacity:0.5;fill:#D1D3D4;" width="90.443" height="14.116"/>
				<path style="fill:#616D7D;" d="M487.902,278.235H190.087c-8.484,0-15.361-6.877-15.361-15.361V74.885
					c0-8.484,6.877-15.361,15.361-15.361h297.815c8.484,0,15.361,6.877,15.361,15.361v187.989
					C503.263,271.358,496.386,278.235,487.902,278.235z"/>
				
					<rect x="252.085" y="3.196" transform="matrix(-1.836970e-16 1 -1 -1.836970e-16 495.9372 -182.0526)" style="fill:#F4F5F9;" width="173.821" height="307.492"/>
				<g>
					<path style="fill-rule:evenodd;clip-rule:evenodd;fill:#297FB8;" d="M475.887,95.033H202.103c-4.088,0-7.402-3.314-7.402-7.402
						v-5.094c0-4.088,3.314-7.402,7.402-7.402h273.784c4.088,0,7.402,3.314,7.402,7.402v5.094
						C483.289,91.719,479.975,95.033,475.887,95.033z"/>
					<path style="fill-rule:evenodd;clip-rule:evenodd;fill:#297FB8;" d="M475.887,141.224H313.729
						c-4.088,0-7.402-3.314-7.402-7.402v-5.094c0-4.088,3.314-7.402,7.402-7.402h162.158c4.088,0,7.402,3.314,7.402,7.402v5.094
						C483.289,137.91,479.975,141.224,475.887,141.224z"/>
					<path style="fill:#BCCACE;" d="M475.887,202.886H313.729c-4.088,0-7.402-3.314-7.402-7.402v-43.232
						c0-4.088,3.314-7.402,7.402-7.402h162.158c4.088,0,7.402,3.314,7.402,7.402v43.232
						C483.289,199.572,479.975,202.886,475.887,202.886z"/>
					<path style="fill:#BCCACE;" d="M483.289,212.697c0-2.598-2.109-4.705-4.711-4.705H311.039c-2.602,0-4.711,2.106-4.711,4.705
						v22.519h176.961V212.697z"/>
					<ellipse style="fill:#F4F5F9;" cx="206.586" cy="85.084" rx="5.519" ry="5.511"/>
					<rect x="223.588" y="83.192" style="fill:#F4F5F9;" width="47.716" height="3.785"/>
					<rect x="285.166" y="83.192" style="fill:#F4F5F9;" width="47.716" height="3.785"/>
					<rect x="346.743" y="83.192" style="fill:#F4F5F9;" width="47.716" height="3.785"/>
					<path style="fill:#BCCACE;" d="M231.795,105.069h-26.569c-0.798,0-1.445,0.646-1.445,1.444c0,0.797,0.647,1.443,1.445,1.443
						h26.569c0.799,0,1.446-0.646,1.446-1.443C233.241,105.715,232.594,105.069,231.795,105.069z"/>
					<path style="fill-rule:evenodd;clip-rule:evenodd;fill:#297FB8;" d="M198.904,104.434c-1.15,0-2.082,0.931-2.082,2.079
						c0,1.148,0.932,2.079,2.082,2.079c1.15,0,2.082-0.931,2.082-2.079C200.985,105.365,200.053,104.434,198.904,104.434z"/>
					<path style="fill-rule:evenodd;clip-rule:evenodd;fill:#297FB8;" d="M198.904,112.291c-1.15,0-2.082,0.931-2.082,2.079
						c0,1.148,0.932,2.079,2.082,2.079c1.15,0,2.082-0.931,2.082-2.079C200.985,113.221,200.053,112.291,198.904,112.291z"/>
					<path style="fill-rule:evenodd;clip-rule:evenodd;fill:#297FB8;" d="M198.904,120.148c-1.15,0-2.082,0.931-2.082,2.079
						c0,1.148,0.932,2.079,2.082,2.079c1.15,0,2.082-0.931,2.082-2.079C200.985,121.078,200.053,120.148,198.904,120.148z"/>
					<path style="fill-rule:evenodd;clip-rule:evenodd;fill:#297FB8;" d="M198.904,128.005c-1.15,0-2.082,0.931-2.082,2.079
						c0,1.148,0.932,2.079,2.082,2.079c1.15,0,2.082-0.931,2.082-2.079C200.985,128.935,200.053,128.005,198.904,128.005z"/>
					<path style="fill-rule:evenodd;clip-rule:evenodd;fill:#297FB8;" d="M198.904,135.862c-1.15,0-2.082,0.931-2.082,2.079
						c0,1.148,0.932,2.079,2.082,2.079c1.15,0,2.082-0.931,2.082-2.079C200.985,136.792,200.053,135.862,198.904,135.862z"/>
					<path style="fill-rule:evenodd;clip-rule:evenodd;fill:#297FB8;" d="M198.904,143.719c-1.15,0-2.082,0.931-2.082,2.079
						s0.932,2.079,2.082,2.079c1.15,0,2.082-0.931,2.082-2.079S200.053,143.719,198.904,143.719z"/>
					<path style="fill:#BCCACE;" d="M231.795,112.926h-26.569c-0.798,0-1.445,0.646-1.445,1.444c0,0.797,0.647,1.444,1.445,1.444
						h26.569c0.799,0,1.446-0.646,1.446-1.444C233.241,113.572,232.594,112.926,231.795,112.926z"/>
					<path style="fill:#BCCACE;" d="M231.795,120.783h-26.569c-0.798,0-1.445,0.646-1.445,1.444c0,0.797,0.647,1.443,1.445,1.443
						h26.569c0.799,0,1.446-0.646,1.446-1.443C233.241,121.429,232.594,120.783,231.795,120.783z"/>
					<path style="fill:#BCCACE;" d="M231.795,128.64h-26.569c-0.798,0-1.445,0.646-1.445,1.444s0.647,1.444,1.445,1.444h26.569
						c0.799,0,1.446-0.646,1.446-1.444S232.594,128.64,231.795,128.64z"/>
					<path style="fill:#BCCACE;" d="M231.795,136.497h-26.569c-0.798,0-1.445,0.646-1.445,1.444c0,0.797,0.647,1.443,1.445,1.443
						h26.569c0.799,0,1.446-0.646,1.446-1.443C233.241,137.143,232.594,136.497,231.795,136.497z"/>
					<path style="fill:#BCCACE;" d="M231.795,144.354h-26.569c-0.798,0-1.445,0.646-1.445,1.444s0.647,1.444,1.445,1.444h26.569
						c0.799,0,1.446-0.646,1.446-1.444S232.594,144.354,231.795,144.354z"/>
					<rect x="316.338" y="154.176" style="fill:#F8C924;" width="39.442" height="39.385"/>
					<path style="fill:#F4F5F9;" d="M368.759,154.176v2.565h100.505v-2.565H368.759z M368.759,163.742h100.505v-2.565H368.759
						V163.742z M368.759,170.743h100.505v-2.565H368.759V170.743z M368.759,177.745h100.505v-2.565H368.759V177.745z
						 M368.759,184.746h100.505v-2.565H368.759V184.746z M368.759,191.747h59.404v-2.565h-59.404V191.747z"/>
					<rect x="327.128" y="105.706" style="fill:#BCCACE;" width="36.068" height="3.841"/>
					
						<ellipse transform="matrix(0.0011 -1 1 0.0011 206.5408 422.015)" style="fill-rule:evenodd;clip-rule:evenodd;fill:#549FFE;" cx="314.504" cy="107.627" rx="8.165" ry="8.176"/>
					<rect x="386.865" y="105.706" style="fill:#BCCACE;" width="36.068" height="3.841"/>
					
						<ellipse transform="matrix(0.0011 -1 1 0.0011 266.2152 481.7522)" style="fill-rule:evenodd;clip-rule:evenodd;fill:#FE6B6B;" cx="374.24" cy="107.627" rx="8.165" ry="8.176"/>
					<rect x="446.601" y="105.706" style="fill:#BCCACE;" width="36.068" height="3.841"/>
					
						<ellipse transform="matrix(0.0011 -1 1 0.0011 325.8863 541.4883)" style="fill-rule:evenodd;clip-rule:evenodd;fill:#01A2A3;" cx="433.977" cy="107.627" rx="8.165" ry="8.176"/>
					<path style="fill-rule:evenodd;clip-rule:evenodd;fill:#00D1D2;" d="M289.685,170.58h-39.413c-4.455,0-8.066-3.611-8.066-8.066
						v-54.986c0-4.455,3.611-8.066,8.066-8.066h39.412c4.455,0,8.066,3.611,8.066,8.066v54.986
						C297.751,166.969,294.14,170.58,289.685,170.58z"/>
					<rect x="251.117" y="154.176" style="fill:#F4F5F9;" width="37.724" height="3.841"/>
					<rect x="259.459" y="160.778" style="fill:#F4F5F9;" width="21.04" height="3.841"/>
					<path style="fill:#BCCACE;" d="M289.685,201.235h-39.413c-4.455,0-8.066-3.611-8.066-8.066v-8.586
						c0-4.455,3.611-8.066,8.066-8.066h39.413c4.455,0,8.066,3.611,8.066,8.066v8.585
						C297.751,197.624,294.14,201.235,289.685,201.235z"/>
					<path style="fill:#F4F5F9;" d="M278.785,137.227c-2.372-1.159-4.308-3.007-5.579-5.277c4.095-2.46,7.051-9.097,7.051-13.639
						c0-5.669-4.602-10.264-10.279-10.264c-5.677,0-10.279,4.595-10.279,10.264c0,4.542,2.956,11.179,7.051,13.639
						c-1.27,2.27-3.207,4.118-5.578,5.277c-4.642,2.268-8.277,6.272-10.056,11.168h37.724
						C287.063,143.499,283.427,139.495,278.785,137.227z"/>
					<path style="fill:#F4F5F9;" d="M375.396,126.155h-16.48c-2.832,0-5.127,2.292-5.127,5.12l0,0c0,2.828,2.296,5.12,5.127,5.12
						h16.48c2.832,0,5.127-2.292,5.127-5.12l0,0C380.523,128.447,378.228,126.155,375.396,126.155z M388.881,129.355v3.841h46.946
						v-3.841H388.881z"/>
				</g>
			</g>
		</g>
		<g>
			<path style="fill-rule:evenodd;clip-rule:evenodd;fill:#222B54;" d="M414.681,311.836c-0.478,1.852-1.222,3.941-2.848,4.459
				c-1.128,0.359-5.012-1.918-5.889-2.833c-0.877-0.914-8.364-45.002-7.43-47.686c1.253-3.601,18.405,1.372,19.21,7.618
				c1.029,7.985,0.6,16.48-0.382,24.398C416.754,302.546,415.865,307.244,414.681,311.836z"/>
			<path style="fill:#F4A086;" d="M426.446,349.264c-1.574,0.827-3.337,1.29-5.115,1.343c-0.574-1.992-1.148-3.983-1.722-5.975
				c-0.073-0.251-0.146-0.516-0.087-0.772c0.086-0.375,0.43-0.628,0.766-0.817c1.272-0.714,3.307-1.511,3.948,0.168
				C425.001,345.217,425.708,347.248,426.446,349.264z"/>
			<path style="fill:#F4A086;" d="M414.378,352.763c-1.736,0.26-3.567,0.114-5.31-0.424c-0.066-2.069-0.133-4.138-0.199-6.208
				c-0.008-0.261-0.014-0.535,0.106-0.757c0.177-0.325,0.574-0.451,0.947-0.518c1.414-0.253,3.592-0.332,3.8,1.464
				C413.973,348.467,414.159,350.617,414.378,352.763z"/>
			<path style="fill-rule:evenodd;clip-rule:evenodd;fill:#222B54;" d="M404.958,306.761c1.498-3.663,6.482-6.174,10.188,0.18
				c5.652,9.692-1.646,27.821-0.773,39.524h-6.019C407.94,345.333,404.127,308.794,404.958,306.761z"/>
			<path style="fill:#F4A086;" d="M404.442,228.181c-0.487,6.868-1.835,13.903-5.704,19.602c-0.834,1.228-2.045,2.503-3.523,2.348
				c-0.864-0.091-1.615-0.684-2.081-1.416c-0.466-0.732-0.685-1.592-0.845-2.444c-1.253-6.71,0.798-13.549,2.84-20.063
				c0.842-2.683,1.96-7.432,4.695-8.879c2.849-1.507,4.283,3.148,4.544,5.046C404.634,224.296,404.579,226.251,404.442,228.181z"/>
			<path style="fill:#FE6B80;" d="M404.77,218.424c-0.131-1.136-0.435-2.475-1.492-2.97c-1.114-0.523-2.31,0.24-3.177,1.017
				c-5.253,4.705-7.243,11.347-8.196,18.476l12.596,0.776C405.342,230.046,405.438,224.217,404.77,218.424z"/>
			<path style="fill-rule:evenodd;clip-rule:evenodd;fill:#0A3C5F;" d="M411.395,306.177c-0.976,7.592-13.399,2.975-12.329-3.831
				c2.093-13.313,7.387-35.651,9.439-37.639c5.638-5.462,18.459-2.386,18.459,6.533C426.964,282.122,412.97,293.934,411.395,306.177
				z"/>
			<path style="fill:#F7B690;" d="M387.245,246.735c-0.355,0.791,0.013,1.757,0.65,2.346c0.637,0.589,5.066,2.671,9.413,0.751
				c2.188-0.966,2.52-3.071,1.753-5.069C397.993,241.983,387.665,245.798,387.245,246.735z"/>
			<path style="fill-rule:evenodd;clip-rule:evenodd;fill:#0A3C5F;" d="M399.085,304.109c-0.303-3.91,5.13-5.957,10.331-0.651
				c8.375,8.544,10.823,24.84,15.155,39.213l-5.68,1.99C417.037,341.475,399.671,311.678,399.085,304.109z"/>
			<path style="fill:#CC346F;" d="M427.94,243.393c2.041-6.54,4.547-14.619,3.417-21.457c-2.772-3.38-8.442-11.227-19.684-11.227
				c-7.886,0-13.79,7.951-15.158,9.971c-1.524,2.251-0.971,5.46-0.591,8.064c0.81,5.551,3.216,27.359,1.126,42.496h31.841
				C428.829,264.021,425.883,249.984,427.94,243.393z"/>
			<path style="fill:#F4A086;" d="M435.265,235.441c-1.577-6.007-4.944-11.534-9.561-15.694c-0.831-0.749-1.958-1.499-2.988-1.061
				c-0.562,0.239-0.938,0.797-1.103,1.384c-0.165,0.587-0.15,1.208-0.125,1.817c0.284,7.107,1.577,14.13,2.866,21.125
				c0.396,2.149,0.801,4.326,1.731,6.304s2.459,3.769,4.505,4.543c1.071,0.405,2.824,0.644,3.811-0.126
				c0.794-0.619,0.926-2.197,1.127-3.094c0.713-3.184,0.938-6.475,0.67-9.726C436.047,239.067,435.736,237.233,435.265,235.441z"/>
			<path style="fill-rule:evenodd;clip-rule:evenodd;fill:#18898D;" d="M437.053,237.699c0.011,0.043,0.017,0.088,0.017,0.133
				C437.065,237.787,437.058,237.743,437.053,237.699z"/>
			<path style="fill:#CC346F;" d="M421.288,218.424c0.059-1.136,0.279-2.475,1.304-2.97c1.081-0.523,3.091,0.463,4.006,1.239
				c5.549,4.706,8.637,11.125,10.039,18.253l-13.991,0.776C421.449,230.046,420.985,224.217,421.288,218.424z"/>
			<g>
				<path style="fill:#F4A086;" d="M408.514,202.838c0.77-3.394,3.341-4.189,4.837-3.374c0.958,6.353,1.935,9.176,4.428,12.641
					c-3.1,1.985-8.393,1.616-9.537,0C408.197,211.596,408.116,204.593,408.514,202.838z"/>
				<path style="fill:#F7B690;" d="M408.682,194.87c-3.077-2.125-7.508-0.281-8.147,3.65c-0.585,3.599,3.038,9.773,4.757,10.775
					c3.006,1.752,7.047-2.453,7.189-4.47C412.688,201.87,411.27,196.657,408.682,194.87z"/>
				<path style="fill-rule:evenodd;clip-rule:evenodd;fill:#222B56;" d="M410.871,195.626c0.239-0.161,0.564-0.143,0.828-0.029
					c0.264,0.115,0.481,0.314,0.693,0.509c0.72,0.664,1.445,1.334,2.014,2.131c0.569,0.797,0.977,1.74,0.978,2.719
					c0.001,0.635-0.164,1.294,0.054,1.89c0.195,0.534,0.691,1.026,0.543,1.575c-0.11,0.408-0.576,0.648-0.996,0.603
					c-0.42-0.046-0.786-0.319-1.053-0.647c-0.266-0.328-0.453-0.712-0.668-1.075c-0.716-1.206-1.759-2.19-2.503-3.379
					c-0.744-1.189-1.159-2.749-0.486-3.98L410.871,195.626z"/>
				<path style="fill-rule:evenodd;clip-rule:evenodd;fill:#222B56;" d="M396.592,197.214c0.665-0.269,1.329-0.537,1.994-0.806
					c-0.305,0.378-0.619,0.771-0.739,1.241c-0.12,0.47,0.011,1.041,0.43,1.286c0.326,0.19,0.75,0.14,1.086-0.032
					c0.336-0.173,0.603-0.451,0.864-0.724c-0.137,0.253-0.277,0.519-0.279,0.807c-0.002,0.288,0.186,0.598,0.472,0.63
					c0.228,0.025,0.434-0.124,0.614-0.266c0.902-0.71,1.804-1.42,2.706-2.13c-0.053,0.282-0.106,0.572-0.061,0.855
					c0.046,0.284,0.211,0.566,0.479,0.671c0.47,0.185,0.954-0.234,1.24-0.65c0.286-0.416,0.584-0.916,1.083-0.991
					c0.562-0.084,1.021,0.418,1.365,0.87c0.062,0.081,0.123,0.162,0.185,0.243c0.633,0.831,1.265,1.662,1.898,2.493
					c0.194,0.255,0.392,0.514,0.656,0.694c0.264,0.18,0.611,0.271,0.91,0.157c0.51-0.195,6.02-8.314-1.031-10.794
					c-1.021-0.359-2.462,0.039-3.494,0.363c-1.033,0.324-2.009,0.839-3.074,1.03c-0.844,0.152-1.711,0.094-2.565,0.178
					C398.944,192.576,396.655,194.762,396.592,197.214z"/>
				<path style="fill:#F7B690;" d="M414.138,198.935c0.319,0.795,0.311,1.715-0.021,2.505c-0.949,2.259-3.167,0.233-3.274-1.403
					C410.715,198.087,413.272,196.773,414.138,198.935z"/>
			</g>
			<path style="fill:#FE6B80;" d="M397.99,355.803c-0.077-0.86,0.74-1.573,1.581-1.773c0.841-0.2,1.721-0.048,2.585-0.058
				c2.466-0.029,4.862-1.505,5.993-3.694c0.155-0.301,0.306-0.633,0.602-0.799c0.394-0.221,0.904-0.056,1.253,0.23
				c0.349,0.286,0.595,0.676,0.914,0.996c0.572,0.572,1.387,0.889,2.194,0.877c0.676-0.01,1.434-0.526,2.084-0.185
				c0.574,0.301,0.728,1.094,0.874,1.66c0.25,0.974,0.478,1.955,0.716,2.933c0.053,0.216,0.104,0.443,0.121,0.665h-4.699
				c-0.218-0.307-0.397-1.202-0.49-1.571c-0.016,0.379-0.166,1.279-0.407,1.571h-12.915
				C398.173,356.417,398.019,356.126,397.99,355.803z"/>
			<path style="fill:#FE6B80;" d="M420.267,354.651c-0.317-0.8-0.214-1.591,0.068-1.903c0.283-0.311,0.349-1.862,0.372-4.106
				c0.01-1.026,1.762-1.926,3.232-0.68c0.477,0.404,0.87,0.637,1.201,0.509c0.277-0.108,0.42-0.705,0.803-0.477
				c0.338,0.201,0.665,0.927,0.913,1.439c0.427,0.883,0.846,1.776,1.27,2.663c0.094,0.197,0.19,0.402,0.271,0.611l-7.678,2.69
				C420.547,355.203,420.386,354.951,420.267,354.651z"/>
			<g>
				<path style="fill:#3C79A6;" d="M412.463,256.043h-19.102c-1.13,0-2.303-0.915-2.62-2.044l-8.405-29.975
					c-0.316-1.129,0.343-2.044,1.474-2.044h19.102c1.13,0,2.303,0.915,2.62,2.044l8.405,29.975
					C414.253,255.128,413.593,256.043,412.463,256.043z"/>
				<path style="fill-rule:evenodd;clip-rule:evenodd;fill:#222B54;" d="M413.936,253.999l-8.405-29.975
					c-0.316-1.129-1.489-2.044-2.62-2.044h-2.037c1.13,0,2.303,0.915,2.62,2.044l8.405,29.975c0.316,1.129-0.343,2.044-1.474,2.044
					h2.037C413.593,256.043,414.253,255.128,413.936,253.999z"/>
			</g>
			<path style="fill:#F7B690;" d="M411.207,247.148c-0.935,0.606-1.089,1.991-0.608,2.995c0.481,1.004,16.728,4.937,20.642,4.873
				c1.191-0.02,2.559-0.133,3.26-1.095c0.626-0.859,0.448-2.055,0.113-3.063c-0.563-1.694-1.548-3.602-2.936-4.775
				C430.721,245.274,411.806,246.76,411.207,247.148z"/>
			<path style="fill:#F7B690;" d="M405.345,244.278c-0.392-0.544-0.788-1.293-0.388-1.831c0.265-0.356,0.79-0.429,1.214-0.295
				c0.424,0.134,0.773,0.431,1.117,0.712c0.466,0.379,0.975,0.754,1.57,0.839c0.595,0.085,1.289-0.225,1.429-0.809
				c0.154-0.638-0.345-1.442,0.125-1.9c0.247-0.24,0.662-0.225,0.963-0.058c0.302,0.167,0.516,0.452,0.721,0.729
				c1.091,1.47,2.206,2.992,2.644,4.769c0.438,1.777,0.031,3.892-1.456,4.961c-1.329,0.956-3.291,0.814-4.571-0.206
				c-1.093-0.871-1.511-2.118-1.655-3.456C406.903,246.266,406.237,245.518,405.345,244.278z"/>
			<path style="fill:#F7B690;" d="M386.222,242.756c0.07-0.205,0.184-3.479,0.353-3.616c0.308-0.25,1.459,3.603,1.222,3.921
				c0.834-0.089,1.083-0.115,1.917-0.204c0.606-0.064,1.399-0.016,1.583,0.565c0.147,0.464-0.225,0.909-0.483,1.322
				c-0.459,0.733,0.216,5.012-0.142,5.375c-1.326,1.344-4.229-0.986-4.713-2.297C385.287,246.003,385.621,244.505,386.222,242.756z"
				/>
		</g>
		<g>
			<path style="fill:#F4A086;" d="M116.633,352.763c1.788,0.26,3.59,0.114,5.225-0.424c-0.349-2.069-0.698-4.138-1.046-6.208
				c-0.044-0.261-0.093-0.535-0.258-0.757c-0.242-0.325-0.665-0.451-1.051-0.518c-1.465-0.253-3.659-0.332-3.507,1.464
				C116.176,348.467,116.422,350.617,116.633,352.763z"/>
			<path style="fill:#F4A086;" d="M108.24,344.541c1.249,1.31,2.755,2.304,4.366,2.883c0.977-1.864,1.955-3.729,2.932-5.593
				c0.123-0.236,0.25-0.484,0.255-0.762c0.007-0.408-0.25-0.769-0.514-1.06c-0.999-1.105-2.677-2.52-3.644-0.996
				C110.48,340.835,109.372,342.7,108.24,344.541z"/>
			<path style="fill-rule:evenodd;clip-rule:evenodd;fill:#222B54;" d="M133.096,265.777c-2.036-3.601-18.107,1.372-17.553,7.618
				c0.708,7.985,2.985,16.48,5.689,24.398c0.115,0.336,0.231,0.672,0.349,1.008c1.451,4.128,1.333,8.658-0.414,12.669
				c-3.771,8.658-6.143,20.421-10.108,27.276l4.735,3.711c0.832-0.788,18.756-31.051,19.676-35.103
				C136.165,304.29,134.715,268.639,133.096,265.777z"/>
			<path style="fill-rule:evenodd;clip-rule:evenodd;fill:#0A3C5F;" d="M104.968,277.17c0.109,1.86,4.875,0.671,6.692,0.671
				c14.962,0,23.62-4.859,21.55-11.722c-2.126-7.049-15.515-5.911-22.509-3.64c-1.507,0.49-3.704,0.964-4.734,2.369
				C104.475,266.886,104.574,270.461,104.968,277.17z"/>
			<path style="fill:#F4A086;" d="M126.905,228.181c0.487,6.868,1.835,13.903,5.704,19.602c0.834,1.228,2.045,2.503,3.523,2.348
				c0.864-0.091,1.615-0.684,2.081-1.416c0.466-0.732,0.685-1.592,0.845-2.444c1.253-6.71-0.798-13.549-2.84-20.063
				c-0.841-2.683-1.96-7.432-4.695-8.879c-2.849-1.507-4.283,3.148-4.545,5.046C126.713,224.296,126.768,226.251,126.905,228.181z"
				/>
			<path style="fill-rule:evenodd;clip-rule:evenodd;fill:#818BEA;" d="M126.577,218.424c0.131-1.136,0.435-2.475,1.492-2.97
				c1.114-0.523,2.31,0.24,3.177,1.017c5.253,4.705,7.243,11.347,8.196,18.476l-12.596,0.776
				C126.005,230.046,125.909,224.217,126.577,218.424z"/>
			<path style="fill-rule:evenodd;clip-rule:evenodd;fill:#0A3C5F;" d="M112.784,311.836c0.712,1.852,1.721,3.941,3.413,4.459
				c1.173,0.359,4.768-1.918,5.53-2.833c0.761-0.914,3.587-37.902,2.313-40.586c-1.709-3.601-5.252-5.932-8.688-6.469
				c-4.993-0.78-10.47,0.742-10.483,6.988c-0.017,7.985,1.489,16.48,3.474,24.398C109.534,302.546,111.018,307.244,112.784,311.836z
				"/>
			<path style="fill-rule:evenodd;clip-rule:evenodd;fill:#0A3C5F;" d="M122.199,306.761c-1.828-3.656-7.771-6.546-10.172,0.181
				c-3.866,10.831,1.028,27.017,3.354,39.524h6.019C121.712,345.333,123.215,308.793,122.199,306.761z"/>
			<path style="fill-rule:evenodd;clip-rule:evenodd;fill:#818BEA;" d="M131.573,245.238c1.123-5.528,3.038-10.924,3.851-16.494
				c0.38-2.604,0.933-5.812-0.591-8.064c-1.368-2.02-7.272-9.971-15.158-9.971c-11.242,0-15.984,4.572-17.568,9.988
				c-1.13,6.838-0.74,16.156,1.3,22.696c1.962,6.286-0.125,12.978-1.924,26.857h32.472
				C133.835,262.379,130.45,250.766,131.573,245.238z"/>
			<path style="fill:#F4A086;" d="M152.217,223.23c0.65,0.574-11.35,24.058-15.9,25.43c-2.29,0.69-3.915-0.691-4.637-2.705
				C130.676,243.151,149.2,220.567,152.217,223.23z"/>
			<path style="fill:#F7B690;" d="M98.183,237.543c0.411-6.197,2.67-12.259,6.416-17.217c0.674-0.892,1.639-1.842,2.733-1.606
				c0.597,0.129,1.072,0.605,1.345,1.151c0.274,0.545,0.376,1.158,0.467,1.761c1.067,7.032,1.128,14.173,1.186,21.285
				c0.018,2.185,0.033,4.399-0.505,6.517c-0.538,2.118-1.701,4.165-3.563,5.312c-0.975,0.6-2.651,1.166-3.766,0.596
				c-0.897-0.458-1.325-1.982-1.692-2.825c-1.303-2.992-2.147-6.181-2.5-9.424C98.103,241.251,98.061,239.392,98.183,237.543z"/>
			<path style="fill-rule:evenodd;clip-rule:evenodd;fill:#818BEA;" d="M108.686,218.194c-0.273-1.104-0.743-2.378-1.843-2.671
				c-1.161-0.309-2.947,1.038-3.699,1.974c-4.558,5.669-6.374,12.555-6.4,19.82l13.885-1.88
				C110.729,229.637,110.08,223.824,108.686,218.194z"/>
			<path style="fill:#F7B690;" d="M129.451,245.633c0.957,0.571,1.162,1.95,0.717,2.971c-0.444,1.021-21.005,7.279-24.919,7.359
				c-1.191,0.024-2.562-0.039-3.298-0.975c-0.657-0.836-0.523-2.037-0.225-3.057c0.5-1.713,1.415-3.656,2.758-4.879
				c0.927-0.843,2.052-0.489,3.193-0.523C111.873,246.406,128.839,245.268,129.451,245.633z"/>
			<g>
				<path style="fill-rule:evenodd;clip-rule:evenodd;fill:#222B56;" d="M130.125,203.163c-0.488,0.543-0.922,0.286-0.76-0.419
					c0.518-2.255,0.667-2.594,0.037-4.829c-0.347-1.229-0.51-1.359,0.081-1.639C131.44,195.352,134.16,198.67,130.125,203.163z"/>
				<path style="fill:#F4A086;" d="M122.833,202.838c-0.77-3.394-3.342-4.189-4.837-3.374c-0.958,6.353-1.935,9.176-4.428,12.641
					c3.1,1.985,8.393,1.616,9.537,0C123.15,211.596,123.231,204.593,122.833,202.838z"/>
				<path style="fill:#F7B690;" d="M121.619,195.586c2.865-2.404,7.448-0.981,8.453,2.872c0.92,3.528-2.109,10.014-3.726,11.172
					c-2.828,2.025-7.246-1.784-7.576-3.779C118.287,202.929,119.21,197.607,121.619,195.586z"/>
				<path style="fill-rule:evenodd;clip-rule:evenodd;fill:#222B56;" d="M120.451,204.721c-0.058,0.371-0.104,0.79,0.128,1.084
					c0.193,0.245,0.534,0.331,0.845,0.304c0.311-0.027,0.604-0.148,0.899-0.248c1.256-0.429,2.631-0.502,3.925-0.21
					c0.589,0.133,1.202,0.37,1.536,0.872c0.273,0.41,0.315,0.931,0.289,1.422c-0.034,0.621-0.166,1.245-0.46,1.794
					c-0.293,0.549-0.757,1.019-1.334,1.253c-0.808,0.328-1.728,0.167-2.562-0.086c-1.486-0.45-2.91-1.193-3.978-2.32
					c-1.067-1.126-1.749-2.662-1.657-4.21c0.046-0.769,0.28-1.526,0.676-2.187c0.342-0.572,0.828-1.086,1.453-1.317
					c0.973-0.358,0.769,0.465,0.676,1.041C120.737,202.848,120.597,203.785,120.451,204.721z"/>
				<path style="fill-rule:evenodd;clip-rule:evenodd;fill:#222B56;" d="M122.651,196.754c0.042,0.547-2.532,7.209-2.707,7.094
					c-0.623-0.412-1.109-2.517-2.404-2.693c-0.414-0.056-1.029,0.099-0.886-0.722c0.911-5.205,0.655-4.98,1.673-5.276
					C120.571,194.505,122.577,195.778,122.651,196.754z"/>
				<path style="fill-rule:evenodd;clip-rule:evenodd;fill:#222B56;" d="M117.604,192.413c4.815-2.146,11.982-1.92,13.763-0.347
					c2.651,2.34-0.53,6.93-1.707,6.989c-0.538,0.027-0.929-0.469-1.308-0.851c-1.797-1.814-3.863-1.096-5.476-1.112
					C120.016,197.062,113.501,194.242,117.604,192.413z"/>
				<path style="fill:#F7B690;" d="M116.567,200.143c-0.243,0.821-0.149,1.736,0.256,2.492c1.157,2.161,3.175-0.064,3.128-1.702
					C119.896,198.979,117.227,197.909,116.567,200.143z"/>
			</g>
			<path style="fill-rule:evenodd;clip-rule:evenodd;fill:#0A3C5F;" d="M114.169,347.702c0.131-0.312,0.289-0.641,0.227-0.974
				c-0.083-0.443-0.537-0.728-0.981-0.812c-0.444-0.083-0.902-0.021-1.352-0.061c-0.806-0.07-1.573-0.491-2.082-1.116
				c-0.427-0.524-0.517-1.435-1.196-1.714c-0.599-0.246-1.308,0.145-1.835,0.397c-0.909,0.434-1.808,0.89-2.711,1.335
				c-0.2,0.099-0.407,0.204-0.588,0.335l3.017,3.597c0.376-0.03,1.178-0.468,1.521-0.634c-0.282,0.256-0.876,0.948-0.945,1.321
				l5.505,7.279l2.335-2.122C113.606,352.632,113.236,349.923,114.169,347.702z"/>
			<path style="fill-rule:evenodd;clip-rule:evenodd;fill:#0A3C5F;" d="M115.829,354.02c-0.842-0.197-1.721-0.042-2.585-0.049
				c-0.053-0.001-0.106-0.005-0.16-0.007l-0.334,2.692l4.263-0.014c0.221-0.239,0.375-0.53,0.403-0.854
				C117.49,354.927,116.67,354.218,115.829,354.02z"/>
			<path style="fill-rule:evenodd;clip-rule:evenodd;fill:#0A3C5F;" d="M124.302,355.803c0.034-0.86-0.325-1.573-0.695-1.773
				c-0.37-0.2-0.947-1.642-1.712-3.752c-0.35-0.965-2.301-1.235-3.275,0.427c-0.316,0.539-0.61,0.889-0.964,0.877
				c-0.297-0.01-0.63-0.526-0.916-0.185c-0.252,0.301-0.32,1.094-0.384,1.66c-0.11,0.974-0.21,1.955-0.315,2.933
				c-0.023,0.216-0.046,0.443-0.053,0.665h8.136C124.221,356.417,124.289,356.126,124.302,355.803z"/>
			<g>
				<path style="fill:#3C79A6;" d="M144.29,225.162h5.222c0.309,0,0.63-0.25,0.716-0.559l3.189-11.068
					c0.087-0.309-0.094-0.559-0.403-0.559h-5.222c-0.309,0-0.63,0.25-0.716,0.559l-3.189,11.068
					C143.801,224.911,143.981,225.162,144.29,225.162z"/>
				<path style="fill:#A2D1EB;" d="M145.054,225.162h5.222c0.309,0,0.63-0.25,0.716-0.559l3.189-11.068
					c0.087-0.309-0.094-0.559-0.403-0.559h-5.222c-0.309,0-0.63,0.25-0.716,0.559l-3.189,11.068
					C144.565,224.911,144.745,225.162,145.054,225.162z"/>
			</g>
			<path style="fill:#F7B690;" d="M131.033,243.897c0.453-0.288,1.191-0.504,1.411-0.014c0.131,0.291-0.062,0.627-0.291,0.85
				c-0.229,0.223-0.513,0.413-0.63,0.71c-0.202,0.512,0.219,1.099,0.74,1.28c0.521,0.181,1.092,0.073,1.633-0.037
				c1.464-0.298,2.928-0.597,4.391-0.895c0.608-0.124,1.383-0.181,1.706,0.348c0.236,0.387,0.085,0.888-0.11,1.297
				c-0.783,1.638-2.228,2.948-3.936,3.567c-1.708,0.62-3.658,0.542-5.311-0.212c-0.999-0.456-1.907-1.172-2.427-2.138
				C126.757,245.959,129.118,245.114,131.033,243.897z"/>
			<path style="fill:#F7B690;" d="M154.236,220.072c-0.119-1.508-1.131-2.912-2.526-3.504c-0.911-0.386-2.141-0.35-2.697,0.468
				c-0.428,0.63-0.247,1.589,0.379,2.024c-0.6,0.704-0.392,1.762-0.152,2.654c0.144,0.536,0.289,1.072,0.433,1.608
				c0.128,0.477,0.291,1.001,0.717,1.253C152.401,225.764,154.348,221.494,154.236,220.072z"/>
		</g>
		<g>
			<path style="fill-rule:evenodd;clip-rule:evenodd;fill:#0A3C5F;" d="M188.017,276.512c1.465,1.153,3.403,1.329,5.221,1.329
				c14.962,0,23.62-4.859,21.55-11.722c-2.126-7.049-15.515-5.911-22.509-3.64c-1.507,0.49-3.704,0.964-4.734,2.369
				C186.052,266.886,184.456,273.711,188.017,276.512z"/>
			<path style="fill:#255880;" d="M196.306,311.635c0.427,1.852,2.956,4.142,4.569,4.66c1.118,0.359,5.064-1.918,5.966-2.833
				c0.902-0.914,9.432-37.902,8.572-40.586c-1.154-3.601-4.337-5.933-7.691-6.469c-4.873-0.78-9.989,0.897-11.561,6.988
				C192.369,288.096,198.793,299.08,196.306,311.635z"/>
			<path style="fill:#F4A086;" d="M176.364,344.601c1.425,1.044,3.107,1.764,4.877,2.089c0.94-1.844,1.88-3.688,2.821-5.533
				c0.119-0.233,0.24-0.479,0.228-0.735c-0.018-0.377-0.316-0.676-0.617-0.91c-1.143-0.888-3.036-1.974-3.985-0.444
				C178.553,340.897,177.473,342.758,176.364,344.601z"/>
			<path style="fill:#255880;" d="M207.14,312.623c0.59-3.823-2.923-8.939-9.106-4.591c-9.956,7.002-15.395,22.436-19.104,31.114
				l5.324,2.803C191.053,331.777,206.812,314.747,207.14,312.623z"/>
			<path style="fill:#2D6C9C;" d="M221.068,246.362c1.12,0.976,2.616,1.9,4.005,1.375c0.812-0.307,1.387-1.072,1.651-1.898
				c0.264-0.826,0.257-1.713,0.194-2.579c-0.498-6.808-8.938-22.919-14.605-27.388c-2.53-1.995-6.31,8.998-6.079,10.901
				C206.47,228.699,215.874,241.835,221.068,246.362z"/>
			<path style="fill:#D5E5FD;" d="M244.639,257.833c0.606,0.829,1.244,1.846,0.897,2.813c-0.292,0.816-1.228,1.259-2.096,1.244
				c-0.263-0.005-2.879-1.471-5.691-3.218l3.564-4.408C242.94,255.871,244.153,257.169,244.639,257.833z"/>
			<path style="fill:#2D6C9C;" d="M241.314,254.264l-3.641,5.443c-6.453-4.009-16.174-11.807-17.432-14.865
				c-0.909-2.21,0.311-3.958,2.249-4.869C224.594,238.984,235.549,248.567,241.314,254.264z"/>
			<path style="fill:#2D6C9C;" d="M204.234,309.99c2.435,5.253,6.384,5.562,9.228,0.372c0.547-0.998-7.565-44.386-9.436-46.838
				c-2.51-3.289-17.892,3.67-17.892,9.94C186.134,287.974,199.352,299.457,204.234,309.99z"/>
			<path style="fill:#F4A086;" d="M208.178,352.763c1.762,0.26,3.578,0.114,5.267-0.424c-0.14-2.069-0.28-4.138-0.421-6.208
				c-0.018-0.261-0.039-0.535-0.182-0.757c-0.209-0.325-0.619-0.451-0.999-0.518c-1.439-0.253-3.625-0.332-3.654,1.464
				C208.155,348.467,208.184,350.617,208.178,352.763z"/>
			<path style="fill:#3C79A6;" d="M216.409,220.68c1.524,2.251,0.971,5.46,0.592,8.064c-0.813,5.57-0.576,44.903-0.5,45.78
				c0.076,0.877-0.306,1.856-1.193,2.252c-0.52,0.232-1.127,0.233-1.71,0.23c-7.858-0.051-20.299-0.102-28.157-0.153
				c-0.522-0.003-1.08-0.016-1.507-0.283c-0.943-0.588-0.617-1.865-0.278-2.841c2.266-6.537,3.386-23.745,1.329-30.336
				c-2.041-6.54-4.548-14.619-3.417-21.457c2.773-3.38,8.443-11.227,19.684-11.227C209.137,210.709,215.041,218.66,216.409,220.68z"
				/>
			<path style="fill:#2D6C9C;" d="M213.008,306.761c-1.863-3.663-7.098-6.174-10.17,0.181c-4.685,9.692,4.422,27.821,4.717,39.524
				h6.019C213.875,345.333,214.042,308.793,213.008,306.761z"/>
			<path style="fill:#3C79A6;" d="M185.837,217.845c1.073-0.32,8.628,0.16,6.611,5.525c-2.503,6.659-7.504,12.082-11.679,17.845
				c-1.283,1.77-2.585,3.562-4.276,4.949c-1.691,1.387-3.842,2.348-6.023,2.169c-1.142-0.094-2.827-0.63-3.387-1.749
				c-0.451-0.9,0.109-2.381,0.314-3.277C168.124,240.127,179.878,219.621,185.837,217.845z"/>
			<path style="fill-rule:evenodd;clip-rule:evenodd;fill:#18898D;" d="M175.871,237.699c-0.011,0.043-0.017,0.088-0.017,0.133
				C175.858,237.787,175.866,237.743,175.871,237.699z"/>
			<path style="fill:#ACCCFD;" d="M207.654,250.763c-1.425-7.544-2.882-15.067-4.587-21.898c-1.612-6.46-5.492-11.012-10.383-15.255
				c4.039-3.149,11.083-3.447,14.545,0.667c4.272,5.076,2.914,14.281,2.723,20.367C209.8,239.473,208.401,250.771,207.654,250.763z"
				/>
			<path style="fill:#FE6B80;" d="M202.848,216.607c-0.564-0.813-1.314-1.672-1.143-2.645c0.112-0.639,0.667-1.175,1.31-1.266
				c2.386-0.338,1.291,2.253,0.95,3.393c2.291,3.431,5.047,10.63,5.959,19.222c-0.246,5.126-1.557,15.46-2.271,15.452
				c-0.971-5.141-1.959-10.266-3.028-15.174C204.422,229.919,203.903,218.127,202.848,216.607z"/>
			<g>
				<path style="fill-rule:evenodd;clip-rule:evenodd;fill:#222B56;" d="M202.514,190.528c-0.868-0.87-6.861-3.149-8.791,1.17
					c-0.671,1.503-0.922,4.07-0.57,5.678c0.466,2.134,2.516,9.074,1.063,10.07c1.464,0.349,3.081-0.014,4.255-0.954
					c1.174-0.94,1.88-2.437,1.857-3.94c-0.026-1.698-0.918-3.403-0.435-5.032c0.291-0.983,1.04-1.753,1.763-2.481
					c0.582-0.586,1.561-1.232,1.711-2.066C203.52,192.12,203.11,191.125,202.514,190.528z"/>
				<path style="fill-rule:evenodd;clip-rule:evenodd;fill:#222B56;" d="M208.046,193.276c-0.1-0.719-0.33-1.461-0.868-1.948
					c-0.862-0.78-2.234-0.656-3.285-0.158c-0.567,0.268-1.148,0.731-1.151,1.357c-0.003,0.524,0.402,0.953,0.795,1.3
					c0.908,0.802,2.211,1.992,3.409,2.311C208.423,196.533,208.163,194.124,208.046,193.276z"/>
				<path style="fill:#F4A086;" d="M204.41,202.838c-0.77-3.394-3.342-4.189-4.837-3.374c-0.958,6.353-1.935,9.176-4.428,12.641
					c3.1,1.985,8.393,1.616,9.537,0C204.727,211.596,204.808,204.593,204.41,202.838z"/>
				<path style="fill:#F7B690;" d="M198.117,194.83c1.441-3.448,6.167-4.284,8.831-1.32c2.439,2.713,2.727,9.864,1.822,11.634
					c-1.583,3.095-7.258,1.734-8.468,0.113C198.53,202.882,196.905,197.73,198.117,194.83z"/>
				<path style="fill-rule:evenodd;clip-rule:evenodd;fill:#222B56;" d="M207.629,194.193c0.102,0.797,0.056,1.614,0.237,2.396
					c0.181,0.783,0.659,1.568,1.427,1.807c-0.392-0.619-0.391-1.412-0.246-2.131c0.145-0.718,0.418-1.408,0.531-2.132
					c0.247-1.579-0.335-3.264-1.504-4.355c-1.168-1.092-2.891-1.56-4.452-1.209c-0.861,0.193-1.701,0.654-2.149,1.413
					c-0.448,0.759-0.399,1.839,0.259,2.425c0.536,0.477,1.37,0.553,2.049,0.396c0.576-0.133,0.753-0.527,1.226-0.788
					C206.489,191.198,207.475,192.991,207.629,194.193z"/>
				<path style="fill:#F7B690;" d="M195.722,201.193c0.162,0.841,0.666,1.611,1.372,2.097c2.02,1.39,2.792-1.511,1.998-2.946
					C198.145,198.634,195.282,198.906,195.722,201.193z"/>
				<path style="fill-rule:evenodd;clip-rule:evenodd;fill:#222B56;" d="M203.021,192.307c-0.015,0.653-1.754,1.713-2.233,2.158
					c-0.479,0.444-1.021,0.852-1.32,1.433c-0.385,0.749-0.294,1.653-0.079,2.466c0.215,0.814,0.544,1.606,0.612,2.445
					c0.068,0.839-0.191,1.775-0.902,2.227c0.309-0.778-0.023-1.674-0.522-2.347c-0.499-0.673-1.159-1.217-1.636-1.906
					c-0.916-1.321-1.048-3.144-0.332-4.583c0.509-1.024,1.908-2.688,2.977-3.089C200.471,190.779,203.055,190.83,203.021,192.307z"
					/>
			</g>
			<path style="fill:#D5E5FD;" d="M206.229,215.357c-0.499-0.365-0.999-0.731-1.499-1.096c-0.351-0.257-0.748-0.527-1.181-0.479
				c-0.429,0.047-0.756,0.391-1.042,0.712c-0.493,0.554-0.987,1.107-1.48,1.661c-0.233,0.262-0.491,0.538-0.835,0.605
				c-0.445,0.087-0.868-0.201-1.225-0.479c-1.589-1.237-3.091-2.587-4.49-4.035c-0.128-0.132-0.263-0.287-0.257-0.471
				c0.005-0.151,0.106-0.279,0.202-0.395c0.62-0.753,1.24-1.506,1.86-2.259c1.379,0.671,2.794,1.332,4.313,1.547
				c1.17,0.166,2.425,0.04,3.478-0.522c0.175-0.094,0.506-0.419,0.707-0.31c0.195,0.105,0.242,0.739,0.293,0.943
				c0.18,0.714,0.361,1.429,0.541,2.144C205.819,213.734,206.024,214.546,206.229,215.357z"/>
			<g>
				
					<rect x="207.29" y="254.946" transform="matrix(0.9998 -0.0188 0.0188 0.9998 -4.9482 3.9414)" style="fill:#255880;" width="0.637" height="21.535"/>
			</g>
			<g>
				<path style="fill:#255880;" d="M205.739,250.747c-3.597-6.861-8.381-12.925-14.218-18.025l-0.301-0.263l3.722-2.672
					l-3.288-1.087l-0.042-0.172c-1.203-4.979-1.572-9.321,0.541-14.332l0.587,0.247c-2.022,4.793-1.691,8.979-0.551,13.765
					l4.137,1.368l-4.086,2.934c5.76,5.095,10.49,11.13,14.063,17.944L205.739,250.747z"/>
			</g>
			<g>
				<path style="fill:#255880;" d="M209.068,250.906l-0.564-0.294c3.079-5.893,5.003-12.5,5.571-19.122l-3.301-1.279l1.53-0.061
					c0.786-0.031,1.404-0.762,1.609-1.467c0.235-0.812,0.098-1.699-0.085-2.536c-0.859-3.94-2.764-7.587-5.509-10.546l0.467-0.432
					c2.822,3.042,4.78,6.791,5.663,10.842c0.201,0.919,0.349,1.9,0.075,2.848c-0.179,0.618-0.614,1.278-1.24,1.643l1.463,0.567
					l-0.019,0.236C214.18,238.091,212.223,244.869,209.068,250.906z"/>
			</g>
			<g>
				<path style="fill:#D5E5FD;" d="M174.245,273.05c-0.685,0.878-2.978,0.095-3.939-0.47c-0.278-0.163-0.347-2.439-0.918-5.129
					l4.937-0.201C174.116,269.818,174.385,272.871,174.245,273.05z"/>
				<path style="fill:#3C79A6;" d="M168.207,241.259c0.306-0.591,10.208,0.944,8.359,4.845c-1.853,3.907-1.874,17.542-2.32,23.025
					l-5.988,0.861c-1.402-6.613-2.056-20.629-1.771-23.393C166.609,245.414,167.347,242.918,168.207,241.259z"/>
				<path style="fill:#F7B690;" d="M173.234,276.425c-0.546,0.863-1.332,1.65-2.333,1.856c-0.883,0.181-1.813-0.124-2.548-0.645
					c-0.735-0.521-1.303-1.241-1.827-1.974c-0.371-0.52-0.739-1.092-0.749-1.73c-0.01-0.638,0.497-1.324,1.134-1.263
					c0.753,0.072,1.166,1.063,1.92,1.125c0.757,0.062,1.198-0.796,1.74-1.327c0.82-0.803,2.633-0.988,3.399,0.006
					C174.817,273.569,173.854,275.444,173.234,276.425z"/>
			</g>
			<path style="fill-rule:evenodd;clip-rule:evenodd;fill:#0A3C5F;" d="M224.864,355.803c0.077-0.86-0.74-1.573-1.581-1.773
				c-0.841-0.2-1.721-0.048-2.585-0.058c-2.466-0.029-4.862-1.505-5.993-3.694c-0.155-0.301-0.306-0.633-0.602-0.799
				c-0.394-0.221-0.904-0.056-1.253,0.23c-0.349,0.286-0.595,0.676-0.914,0.996c-0.572,0.572-1.387,0.889-2.194,0.877
				c-0.676-0.01-1.434-0.526-2.084-0.185c-0.574,0.301-0.728,1.094-0.873,1.66c-0.251,0.974-0.478,1.955-0.716,2.933
				c-0.053,0.216-0.105,0.443-0.121,0.665h4.699c0.218-0.307,0.397-1.202,0.49-1.571c0.016,0.379,0.166,1.279,0.407,1.571h12.915
				C224.68,356.417,224.835,356.126,224.864,355.803z"/>
			<g>
				<path style="fill:#255880;" d="M202.331,258.17c-0.804,0-1.458-0.653-1.458-1.455c0-0.802,0.654-1.455,1.458-1.455
					c0.803,0,1.457,0.653,1.457,1.455C203.788,257.517,203.134,258.17,202.331,258.17z M202.331,255.896
					c-0.452,0-0.821,0.367-0.821,0.819s0.369,0.819,0.821,0.819c0.453,0,0.821-0.367,0.821-0.819S202.783,255.896,202.331,255.896z"
					/>
			</g>
			<g>
				<path style="fill:#255880;" d="M202.741,266.151c-0.804,0-1.458-0.653-1.458-1.455c0-0.803,0.654-1.456,1.458-1.456
					c0.803,0,1.457,0.653,1.457,1.456C204.198,265.498,203.544,266.151,202.741,266.151z M202.741,263.876
					c-0.453,0-0.821,0.368-0.821,0.82c0,0.452,0.369,0.819,0.821,0.819c0.452,0,0.82-0.368,0.82-0.819
					C203.562,264.244,203.194,263.876,202.741,263.876z"/>
			</g>
			<path style="fill:#255880;" d="M207.316,260.731c-0.245,5.547-0.292,11.047-2.547,16.122c1.246,0.047,2.782,0.704,3.836-0.115
				c1.164-0.905,0.361-3.165,0.206-4.371C208.338,268.683,207.138,264.432,207.316,260.731z"/>
			<path style="fill:#F7B690;" d="M246.134,265.234c0.308,0.267,0.617,0.534,0.925,0.801c0.305,0.264,0.618,0.538,0.8,0.899
				c0.134,0.266,0.191,0.568,0.355,0.817c0.393,0.597,1.325,0.66,1.906,0.244c0.582-0.416,0.837-1.175,0.824-1.889
				c-0.013-0.714-0.255-1.403-0.493-2.076c-0.559-1.575-1.117-3.15-1.676-4.725c0.14-0.464,0.741-0.557,1.222-0.615
				c0.482-0.058,1.081-0.324,1.026-0.805c-0.053-0.464-0.655-0.602-1.122-0.614c-1.373-0.036-2.736,0.034-4.105,0.13
				c-0.88,0.062-1.816,0.028-2.673,0.266c-0.76,0.212-1.282,0.683-1.634,1.384c-0.683,1.36-0.227,2.075,0.87,2.975
				C243.636,263.073,244.885,264.153,246.134,265.234z"/>
			<path style="fill-rule:evenodd;clip-rule:evenodd;fill:#0A3C5F;" d="M177.78,341.998c0.677,0.304,0.699,1.233,1.097,1.779
				c0.475,0.652,1.231,1.103,2.055,1.198c0.46,0.053,0.935,0.004,1.385,0.102c0.45,0.098,0.895,0.402,0.946,0.855
				c0.038,0.34-0.15,0.67-0.309,0.984c-1.536,2.452,0.402,4.145,1.112,4.536c0.757,0.417,1.608,0.69,2.251,1.272
				c0.642,0.581,1.01,1.625,0.516,2.384c-0.186,0.285-0.466,0.481-0.78,0.597c-2.984-0.597-6.388-2.129-8.131-4.346l-2.219-2.947
				c0.1-0.377,0.765-1.064,1.074-1.315c-0.366,0.158-1.224,0.58-1.613,0.599l-2.825-3.75c0.197-0.128,0.418-0.229,0.631-0.323
				c0.964-0.425,1.924-0.863,2.892-1.277C176.424,342.107,177.182,341.73,177.78,341.998z"/>
		</g>
		<g>
			<path style="fill:#F4A086;" d="M71.646,319.742c-1.402,3.691-1.627,14.638-4.929,25.284c-0.131,0.694,3.218,1.774,3.629,1.271
				c5.296-11.627,13.306-24.683,14.89-32.24c0.529-2.522-2.055-8.078-5.161-5.991C77.248,309.967,72.81,316.678,71.646,319.742z"/>
			<path style="fill-rule:evenodd;clip-rule:evenodd;fill:#222B54;" d="M63.331,349.051c0.325-1.028,0.658-2.076,1.285-2.953
				c0.614-0.859,1.34-1.692,2.338-2.04c0.006,0.555,0.245,1.399,0.754,1.623c0.402,0.177,2.763,0.115,3.092,0.406
				c0.221,0.196-0.722,3.782-0.122,5.324c0,0,2.151,1.626,3.261,2.408c0.452,0.319,0.901,0.668,1.189,1.141
				c0.287,0.473,0.385,1.096,0.112,1.578c-0.026,0.046-0.06,0.078-0.089,0.117l-8.199-1.5l-1.117-0.439
				c-0.089-0.384-0.138-0.782-0.184-1.173c-0.164-1.404-0.327-2.808-0.491-4.212c-0.924,1.308-1.649,2.755-2.152,4.275l-0.991-0.389
				C62.455,351.828,62.893,350.44,63.331,349.051z"/>
			<path style="fill:#F4A086;" d="M66.426,269.723c-0.455,3.126,0.143,6.303,0.853,9.381c2.239,9.712,6.513,23.802,10.932,32.738
				c0.538,1.087,6.919,2.897,7.095,1.772c1.794-11.458-0.756-31.753-4.248-42.813c-0.75-2.376-1.664-4.789-3.396-6.581
				C72.619,259.008,67.254,264.037,66.426,269.723z"/>
			<path style="fill:#F7B690;" d="M56.394,322.311c-0.169,3.944,3.062,14.407,3.277,25.55c0.094,0.7,3.613,0.675,3.844,0.068
				c1.369-12.699,4.866-27.607,3.992-35.279c-0.292-2.56-4.493-7.025-6.785-4.068C58.636,311.274,56.535,319.038,56.394,322.311z"/>
			<path style="fill-rule:evenodd;clip-rule:evenodd;fill:#0A3C5F;" d="M57.882,352.286c-0.075-1.075-0.148-2.172,0.113-3.218
				c0.256-1.024,0.627-2.064,1.428-2.753c0.209,0.514,0.741,1.213,1.297,1.235c0.439,0.018,2.614-0.903,3.026-0.752
				c0.297,0.109,0.777,4.326,2.088,5.221c1.311,0.895,2.846,1.388,4.287,2.053c0.503,0.232,1.007,0.495,1.375,0.908
				c0.368,0.413,0.576,1.009,0.395,1.532c-0.017,0.05-0.045,0.087-0.067,0.131h-9.536c-0.224-0.325-0.415-0.678-0.601-1.025
				c-0.667-1.246-1.334-2.493-2.001-3.74c-0.38,1.555-0.525,3.166-0.435,4.764h-1.065C58.084,355.19,57.983,353.738,57.882,352.286z
				"/>
			<path style="fill-rule:evenodd;clip-rule:evenodd;fill:#222B56;" d="M76.215,276.043c-2.505,3.101-10.059,5.633-12.196,4.305
				c-11.689-7.267-11.55-5.891-12.44-9.425c-0.69-2.739,0.789-5.507,2.215-7.946c1.273-2.176,14.349-4.209,20.23-2.681
				c1.193,0.31,3.034-0.111,3.531,1.053c0.951,2.223,1.571,4.351,3.023,8.023C81.396,271.438,78.584,273.111,76.215,276.043z"/>
			<path style="fill:#F7B690;" d="M53.184,264.048c4.159-5.682,14.003-4.747,17.018,2.645c3.335,8.177-0.757,40.419-2.629,46.648
				c-0.853,1.62-8.181,4.609-9.503,1.558c-0.983-9.534-3.896-27.26-5.319-32.089C51.682,279.182,48.871,269.941,53.184,264.048z"/>
			<path style="fill:#FE6B80;" d="M88.495,247.436c0.244,0.763-4.624,1.502-5.295,0.905c-6.212-5.525-14.095-13.16-18.078-20.453
				c-0.685-1.255,2.348-5.602,2.166-7.019C73.978,222.803,86.313,240.628,88.495,247.436z"/>
			<path style="fill-rule:evenodd;clip-rule:evenodd;fill:#0A3C5F;" d="M76.054,259.992c-1.45-0.58-3.19,0.763-4.53,1.193
				c-1.796,0.577-3.685,0.871-5.573,0.849c-3.741-0.042-7.683-1.244-11.096,0.287c-3.263,1.463-5.064,5.124-5.418,8.678
				c-0.354,3.554,0.467,7.104,1.065,10.626c0.671,3.951,5.551,9.539,5.604,29.557h29.841
				C87.743,280.474,78.527,260.982,76.054,259.992z"/>
			<path style="fill:#FE6B80;" d="M76.047,251.461c0.644-4.339,2.28-8.594,1.959-12.968c-0.254-3.452-3.098-6.342-4.909-9.557
				c-0.859-1.525-0.371-4.075-1.404-5.353c-2.131-2.637-5.221-3.067-8.451-4.108c-8.84-2.851-11.131,10.353-10.765,13.26
				c0.366,2.907,2.191,6.992,2.716,9.874c1.345,7.382,1.299,13.364-1.398,20.368c-0.123,0.32,17.348,2.6,20.617,1.943
				c3.314-0.666,3.737-1.9,2.601-4.825C75.918,257.278,75.6,254.469,76.047,251.461z"/>
			<path style="fill:#F4A086;" d="M83.827,244.054c-6.912-0.702-19.469,1.038-24.02,1.324c0.189,5.267,26.356,6.36,28.043,4.601
				C91.68,245.987,86.028,244.277,83.827,244.054z"/>
			<path style="fill:#FE6B80;" d="M56.485,230.198c-0.216,8.265-0.433,16.53-0.649,24.795c-0.018,0.672-0.055,1.399-0.481,1.919
				c-0.877,1.072-2.82,0.702-3.725-0.346c-3.906-4.525-5.528-22.462-4.317-25.717c0.995-2.674,2.931-5.327,5.596-6.531
				C56.623,222.641,56.56,227.307,56.485,230.198z"/>
			<path style="fill:#F7B690;" d="M80.438,243.026c-1.337-0.89-25.479,6.253-29.578,10.175c-1.116,1.068,0.381,4.01,2.466,4.322
				c1.398,0.21,3.45-0.156,4.623-0.496C67.331,254.306,84.448,246.23,80.438,243.026z"/>
			<path style="fill-rule:evenodd;clip-rule:evenodd;fill:#222B56;" d="M70.025,198.107c-0.66-1.638-2.255-2.862-4.01-3.076
				c-1.755-0.215-3.599,0.589-4.635,2.019c-0.527,0.728-0.874,1.618-1.596,2.155c-0.949,0.706-2.254,0.601-3.402,0.891
				c-1.742,0.44-3.176,1.921-3.559,3.674c-0.776,3.552,2.491,7.032,1.812,10.604c-0.309,1.626-1.399,2.986-2.529,4.196
				c-1.131,1.21-2.363,2.379-3.078,3.872c-0.715,1.493-0.791,3.436,0.31,4.673c0.787,0.884,1.999,1.241,3.155,1.496
				c1.289,0.284,2.607,0.326,3.927,0.326c3.055,0,3.055-6.28,3.21-11.137c0.09-2.81,6.605-3.115,7.401-5.813
				c0.436-1.479-0.06-3.069,0.09-4.604c0.146-1.496,0.916-2.553,1.87-3.647c0.713-0.817,1.193-2.068,1.334-3.126
				C70.438,199.768,70.343,198.896,70.025,198.107z"/>
			<path style="fill:#F4A086;" d="M65.938,213.749c-0.324,1.969-0.199,4.011,0.362,5.926c0.174,0.593,0.375,1.282,0.018,1.786
				c-0.341,0.482-1.019,0.546-1.609,0.564c-0.989,0.032-1.998,0.061-2.947-0.22c-0.949-0.281-1.843-0.932-2.155-1.87
				c-0.257-0.775-0.089-1.618,0.08-2.416c0.326-1.531,0.652-3.062,0.977-4.592c0.095-0.449,0.202-0.92,0.509-1.261
				c0.516-0.572,1.452-0.576,2.136-0.221c0.684,0.356,1.173,0.987,1.64,1.599L65.938,213.749z"/>
			<path style="fill:#F7B690;" d="M68.849,213.086c0.494-0.989,0.618-2.115,0.73-3.215c0.154-1.513,0.299-3.048,0.039-4.546
				c-0.26-1.498-0.979-2.979-2.235-3.838c-1.516-1.038-3.56-1-5.301-0.413c-1.512,0.51-2.966,1.491-3.561,2.97
				c-0.323,0.804-0.369,1.688-0.411,2.553c-0.054,1.124-0.105,2.277,0.238,3.348c0.381,1.187,1.225,2.184,2.221,2.936
				c0.995,0.751,2.141,1.277,3.294,1.753c0.666,0.275,1.352,0.539,2.071,0.584C67.366,215.308,68.254,214.277,68.849,213.086z"/>
			<path style="fill-rule:evenodd;clip-rule:evenodd;fill:#222B56;" d="M62.67,203.764c-0.641,1.443-0.393,3.261-1.4,4.478
				c-0.818,0.989-2.398,1.239-3.483,0.552c-0.827-0.524-1.313-1.495-1.368-2.471c-0.055-0.976,0.286-1.947,0.829-2.761
				c0.543-0.813,1.279-1.482,2.062-2.069c1.205-0.904,2.563-1.641,4.037-1.953c0.935-0.198,1.915-0.215,2.85-0.008
				c0.705,0.156,2.072,0.54,2.261,1.374c0.187,0.824-0.54,0.975-1.126,0.813c-0.892-0.247-1.691-0.317-2.579,0.039
				C63.834,202.126,63.071,202.862,62.67,203.764z"/>
			<path style="fill:#F7B690;" d="M59.155,207.923c-0.279-0.1-0.572-0.179-0.869-0.167c-0.297,0.012-0.6,0.124-0.789,0.352
				c-0.255,0.307-0.258,0.755-0.156,1.141c0.256,0.974,1.115,1.677,2.147,1.472c0.782-0.155,1.085-0.859,0.94-1.609
				C60.305,208.472,59.727,208.127,59.155,207.923z"/>
			<path style="fill:#F7B690;" d="M57.949,242.256c-0.894,1.295,2.14,2.056,1.938,2.847c-0.175,0.687-4.473,0.791-5.494,1.053
				c-0.496,0.127-1.072,0.339-1.239,0.938c-0.158,0.568,0.154,1.174,0.515,1.57c0.887,0.975,2.125,1.323,3.303,1.257
				c1.178-0.066,2.32-0.506,3.447-0.942c0.595-0.23,1.2-0.467,1.71-0.915c1.041-0.916,1.271-2.877,0.2-3.917
				C61.234,243.083,59.242,242.781,57.949,242.256z"/>
			<path style="fill:#F7B690;" d="M88.206,245.691c-1.066-0.635-2.587-1.276-3.277-1.355c0.656,0.648,2.031,2.293,1.652,2.894
				c-0.366,0.582-2.087-1.817-2.774-1.917c-1.353-0.196-2.847,0.516-4.118-0.106c-0.957-0.468-1.615-1.814-0.838-2.652
				C82.325,238.807,87.767,242.527,88.206,245.691z"/>
		</g>
		<g>
			<path style="fill-rule:evenodd;clip-rule:evenodd;fill:#222B54;" d="M619.468,311.836c-1.017,1.852-2.37,3.941-4.148,4.459
				c-1.233,0.359-4.452-1.918-5.063-2.833c-0.611-0.914,4.753-45.002,6.47-47.686c2.303-3.601,18.005,1.372,16.99,7.618
				c-1.298,7.985-4.204,16.48-7.494,24.398C624.248,302.546,621.991,307.244,619.468,311.836z"/>
			<path style="fill-rule:evenodd;clip-rule:evenodd;fill:#222B54;" d="M620.688,316.583c0.598-0.506,0.953-1.234,1.29-1.941
				c4.573-9.601,8.754-19.388,12.528-29.33c1.054-2.776,2.093-5.702,1.696-8.644c-0.397-2.942-2.728-5.847-5.701-5.829
				c-2.63,0.016-4.706,2.171-6.285,4.271c-4.264,5.673-7.353,12.209-9.112,19.078c-0.906,3.539-1.461,7.168-1.641,10.817
				c-0.114,2.328-0.741,5.553-0.095,7.833C614.116,315.478,618.012,318.851,620.688,316.583z"/>
			<path style="fill:#F4A086;" d="M613.751,352.763c-1.773,0.26-3.583,0.114-5.248-0.424c0.233-2.069,0.466-4.138,0.698-6.208
				c0.029-0.261,0.063-0.535,0.216-0.757c0.224-0.325,0.639-0.451,1.022-0.518c1.451-0.253,3.64-0.332,3.589,1.464
				C613.966,348.467,613.841,350.617,613.751,352.763z"/>
			<path style="fill-rule:evenodd;clip-rule:evenodd;fill:#222B54;" d="M610.979,306.761c2.027-3.663,7.374-6.174,10.162,0.181
				c4.251,9.692-5.667,27.821-6.486,39.524h-6.019C608.386,345.333,609.855,308.793,610.979,306.761z"/>
			<path style="fill-rule:evenodd;clip-rule:evenodd;fill:#0A3C5F;" d="M648.954,274.24c-1.255,1.378-3.137,1.871-4.93,2.17
				c-14.757,2.463-24.098-0.905-23.19-8.014c0.933-7.303,14.327-8.384,21.6-7.295c1.568,0.235,3.813,0.341,5.061,1.558
				C649.303,264.423,652.003,270.892,648.954,274.24z"/>
			<path style="fill-rule:evenodd;clip-rule:evenodd;fill:#0A3C5F;" d="M651.002,271.536c-1.31-6.149-7.076-7.118-11.884-5.867
				c-0.998,0.259-1.97,0.683-2.869,1.247c-1.829-0.221-3.688,0.639-4.947,1.987c-1.282,1.373-2.005,3.187-2.389,5.024
				c-1.066,5.093,0.285,10.371,2.002,15.283c1.409,4.031,3.072,7.973,4.974,11.796c1.709,3.435,3.706,7.934,5.79,11.156
				c0.231,0.357,9.099-0.121,9.424-2.013c0.805-4.693,1.307-9.461,1.506-14.255C652.941,287.906,652.677,279.396,651.002,271.536z"
				/>
			<g>
				<path style="fill:#F4A086;" d="M626.18,226.554c5.248,4.465,10.12,9.723,12.419,16.213c0.495,1.399,0.805,3.129-0.197,4.225
					c-0.586,0.641-1.51,0.892-2.376,0.833c-0.867-0.059-2.682,0.032-3.268-0.609c-5.746-6.285-9.577-9.082-13.018-14.98
					c-3.914-6.708-2.579-11.402,1.715-9.068C623.162,224.095,624.705,225.299,626.18,226.554z"/>
				<path style="fill-rule:evenodd;clip-rule:evenodd;fill:#FDD247;" d="M615.633,219.247c-2.311,2.348-1.948,10.049,8.565,21.398
					l8.098-9.666C624.706,222.561,616.451,218.416,615.633,219.247z"/>
				<path style="fill:#F4A086;" d="M633.245,265.923c0.234,1,0.591,2.146,1.551,2.514c0.81,0.311,1.757-0.108,2.311-0.775
					c0.554-0.667,3.905-20.346,1.75-24.577c-1.085-2.129-3.207-2.346-5.164-1.473C630.97,242.827,632.391,262.283,633.245,265.923z"
					/>
				<path style="fill:#F4A086;" d="M634.514,271.603c0.021,0.477,0.112,1.013-0.189,1.385c-0.32,0.395-0.925,0.394-1.416,0.263
					c-1.384-0.371-2.509-1.534-2.896-2.912s-0.05-2.923,0.821-4.059c0.896-1.168,2.399-1.907,3.859-1.703
					c1.274,0.178,3.283,1.586,2.477,2.993c-0.33,0.576-1.416,0.924-1.863,1.536C634.783,269.826,634.474,270.707,634.514,271.603z"
					/>
			</g>
			<path style="fill-rule:evenodd;clip-rule:evenodd;fill:#FDD247;" d="M647.081,236.432c0.666-5.721,0.98-11.957-0.774-17.082
				c-3.293-2.878-9.671-6.639-20.759-4.789c-7.778,1.298-12.798,7.067-13.814,9.285c-1.072,2.34-0.165,5.219,0.617,7.646
				c0.54,4.673,5.206,16.257,2.369,23.807c-2.226,5.923-0.501,18.436,0.668,20.013l37.927-3.133
				c-0.061-0.693-1.578-9.458-1.695-10.117C650.108,253.518,648.594,244.975,647.081,236.432z"/>
			<path style="fill:#F4A086;" d="M649.716,239.51c-0.046-6.21-1.945-12.395-5.392-17.563c-0.621-0.93-1.528-1.935-2.634-1.764
				c-0.604,0.093-1.105,0.542-1.411,1.07c-0.305,0.528-0.443,1.134-0.57,1.73c-1.479,6.957-1.96,14.082-2.436,21.179
				c-0.146,2.18-0.291,4.389,0.121,6.535c0.413,2.146,1.453,4.258,3.245,5.512c0.938,0.656,2.578,1.319,3.724,0.816
				c0.922-0.405,1.439-1.901,1.855-2.721c1.477-2.91,2.507-6.045,3.05-9.261C649.579,243.216,649.73,241.362,649.716,239.51z"/>
			<path style="fill-rule:evenodd;clip-rule:evenodd;fill:#18898D;" d="M650.891,242.138c0,0.045-0.005,0.089-0.017,0.133
				C650.882,242.227,650.885,242.182,650.891,242.138z"/>
			<path style="fill-rule:evenodd;clip-rule:evenodd;fill:#FDD247;" d="M640.37,219.577c0.338-1.086,0.881-2.33,1.997-2.558
				c1.177-0.241,2.881,1.209,3.577,2.187c4.217,5.926,5.625,12.907,5.224,20.161l-13.751-2.691
				C637.657,230.881,638.647,225.117,640.37,219.577z"/>
			<path style="fill:#F4A086;" d="M627.893,274.207c0.212,1.093,1.44,1.755,2.552,1.686c1.112-0.069,14.013-17.237,15.421-20.885
				c2.405-6.227-6.114-9.31-8.337-3.708C635.984,255.197,627.757,273.508,627.893,274.207z"/>
			<g>
				<path style="fill:#F4A086;" d="M623.097,207.531c1.63-3.713,5.398-5.148,7.386-4.654c0.346,6.383,1.28,9.09,4.26,12.105
					c-4.706,2.798-12.142,3.664-13.505,2.254C621.255,216.717,622.254,209.45,623.097,207.531z"/>
				<path style="fill-rule:evenodd;clip-rule:evenodd;fill:#222B56;" d="M618.838,198.943c-0.561,0.592-1.107,1.297-1.109,2.112
					c-0.001,0.625,0.321,1.199,0.634,1.741c0.405,0.701,0.81,1.401,1.215,2.102c0.491-0.905,0.598-1.959,0.768-2.975
					c0.17-1.015,0.44-2.073,1.161-2.809c0.447-0.456,1.091-0.846,1.131-1.483c0.057-0.914-0.946-1.167-1.55-0.696
					C620.292,197.554,619.531,198.21,618.838,198.943z"/>
				<path style="fill:#F7B690;" d="M628.878,198.673c-2.23-3-7.019-2.676-8.89,0.841c-1.713,3.22-0.269,10.23,1.036,11.73
					c2.282,2.624,7.463-0.061,8.246-1.926C630.418,206.587,630.753,201.196,628.878,198.673z"/>
				<path style="fill-rule:evenodd;clip-rule:evenodd;fill:#222B56;" d="M621.098,206.93c0.663-0.641,1.787-0.908,2.513-0.339
					c0.386,0.303,0.59,0.774,0.826,1.204c0.236,0.43,0.56,0.866,1.036,0.985c0.661,0.165,1.285-0.337,1.783-0.802
					c0.564-0.528,1.129-1.057,1.693-1.585c0.271-0.254,0.654-0.526,0.98-0.346c0.295,0.162,0.31,0.576,0.263,0.91
					c-0.377,2.688-2.343,5.093-4.905,6.001c-0.985,0.349-2.093,0.483-3.066,0.102c-1.207-0.472-1.96-1.639-2.339-2.828
					C619.544,209.167,620.322,207.68,621.098,206.93z"/>
				<path style="fill-rule:evenodd;clip-rule:evenodd;fill:#222B56;" d="M627.602,199.571c-0.168,0.523,0.793,7.599,0.99,7.527
					c0.702-0.257,1.662-2.192,2.963-2.064c0.416,0.041,0.979,0.335,1.029-0.498c0.32-5.274,0.517-4.996-0.405-5.519
					C630.148,197.864,627.901,198.638,627.602,199.571z"/>
				<path style="fill:#F7B690;" d="M632.736,204.274c0.046,0.855-0.258,1.724-0.826,2.365c-1.626,1.835-3.074-0.796-2.649-2.379
					C629.767,202.372,632.612,201.948,632.736,204.274z"/>
				<path style="fill-rule:evenodd;clip-rule:evenodd;fill:#222B56;" d="M621.145,200.027c0.1,0.468,0.341,0.99,0.81,1.085
					c0.49,0.099,5.223-3.394,5.511-3.411c0.288-0.017-0.158,1.92,0.148,2.149c0.262,0.196,0.63,0.082,0.939-0.024
					c1.362-0.468,2.82-0.329,4.252-0.182c0.116-0.412,0.032-1.168-0.163-1.55c-0.195-0.382-0.487-0.704-0.792-1.005
					c-1.35-1.334-3.109-2.371-5.008-2.42c-1.131-0.029-2.259,0.228-3.324,0.606C619.412,196.733,620.993,199.315,621.145,200.027z"
					/>
			</g>
			<path style="fill-rule:evenodd;clip-rule:evenodd;fill:#FDD247;" d="M597.059,355.803c-0.077-0.86,0.74-1.573,1.581-1.773
				c0.841-0.2,1.721-0.048,2.585-0.058c2.466-0.029,4.862-1.505,5.993-3.694c0.155-0.301,0.306-0.633,0.602-0.799
				c0.393-0.221,0.904-0.056,1.253,0.23s0.596,0.676,0.914,0.996c0.571,0.572,1.387,0.889,2.194,0.877
				c0.677-0.01,1.434-0.526,2.084-0.185c0.574,0.301,0.728,1.094,0.873,1.66c0.25,0.974,0.478,1.955,0.716,2.933
				c0.053,0.216,0.105,0.443,0.121,0.665h-4.699c-0.219-0.307-0.397-1.202-0.49-1.571c-0.016,0.379-0.166,1.279-0.407,1.571h-12.915
				C597.243,356.417,597.088,356.126,597.059,355.803z"/>
			<g>
				<path style="fill:#F4A086;" d="M668.879,350.242c-1.53,0.905-3.268,1.457-5.04,1.599c-0.674-1.96-1.348-3.921-2.022-5.881
					c-0.085-0.248-0.172-0.508-0.126-0.766c0.067-0.379,0.398-0.649,0.724-0.854c1.234-0.777,3.227-1.676,3.951-0.032
					C667.231,346.273,668.04,348.266,668.879,350.242z"/>
				<path style="fill-rule:evenodd;clip-rule:evenodd;fill:#0A3C5F;" d="M641.562,311.695c-0.07-3.921,4.039-8.72,9.502-3.683
					c8.797,8.11,12.066,24.262,15.939,36.193l-5.572,2.274C660.598,345.596,641.6,313.875,641.562,311.695z"/>
				<path style="fill-rule:evenodd;clip-rule:evenodd;fill:#FDD247;" d="M662.98,355.934c-0.357-0.783-0.295-1.579-0.028-1.904
					c0.266-0.325,0.254-1.877,0.164-4.12c-0.042-1.026,1.662-2.012,3.193-0.843c0.497,0.38,0.901,0.592,1.225,0.447
					c0.271-0.121,0.384-0.725,0.778-0.517c0.347,0.183,0.711,0.892,0.984,1.391c0.471,0.86,0.935,1.731,1.403,2.596
					c0.103,0.192,0.21,0.392,0.301,0.596l-7.532,3.074C663.288,356.471,663.115,356.228,662.98,355.934z"/>
			</g>
			<path style="fill:#F4A086;" d="M629.11,279.161c-0.956-0.081,0.163-1.91,0.244-2.865c-1.464,1.322-2.928,2.643-4.392,3.965
				c-0.258,0.233-0.547,0.478-0.894,0.489c-0.408,0.013-0.764-0.324-0.895-0.709s-0.085-0.808-0.009-1.209
				c0.421-2.239,1.714-4.304,3.547-5.661c0.712-0.527,1.526-0.958,2.407-1.051c0.881-0.092,1.838,0.203,2.378,0.905
				c0.833,1.082,0.128,1.823-0.406,2.731C630.748,276.337,629.436,279.189,629.11,279.161z"/>
		</g>
		<g>
			<g>
				<path style="fill-rule:evenodd;clip-rule:evenodd;fill:#6A60D1;" d="M555.676,307.244c0.734-4.164,1.467-8.328,2.2-12.492
					c0.787-4.469,1.578-9.018,1.177-13.663c-0.401-4.646-0.926-10.714-4.305-13.623c-4.319-3.719-11.176-5.1-12.557,1.162
					c-4.854,22.023,6.896,57.31,9.284,65.264c0.661,2.202,1.359,4.396,2.086,6.581h6.088
					C558.707,328.129,558.773,313.882,555.676,307.244z"/>
				<path style="fill:#F4A086;" d="M559.65,340.473h-6.088c0.852,2.56,1.744,5.11,2.685,7.645c0.33,0.888,0.796,1.901,1.704,2.166
					c1.162,0.338,2.709-0.682,2.536-1.864C560.125,345.94,559.862,343.254,559.65,340.473z"/>
				<path style="fill-rule:evenodd;clip-rule:evenodd;fill:#7368E3;" d="M559.912,312.537c0.745,2.014,1.945,4.282,3.857,4.348
					c1.16,0.04,2.232-0.816,2.895-1.905s0.991-2.392,1.308-3.669c1.371-5.52,2.742-11.039,4.113-16.559
					c1.11-4.469,2.23-9.018,2.164-13.663c-0.065-4.646-1.489-9.487-4.657-12.397c-4.051-3.719-11.416-3.269-12.86,3.067
					c-1.913,8.393-1.822,17.728-0.541,26.223C556.943,302.974,558.187,307.871,559.912,312.537z"/>
				<path style="fill-rule:evenodd;clip-rule:evenodd;fill:#7368E3;" d="M567.974,307.178c-5.641-3.451-10.822,2.529-6.735,7.925
					c4.938,6.519,10.909,12.496,16.767,18.182c1.548,1.503,3.122,2.979,4.714,4.436l4.669-4.119
					C580.583,323.098,573.736,310.703,567.974,307.178z"/>
				<path style="fill:#F7B690;" d="M587.389,333.601l-4.669,4.119c2.028,1.857,4.087,3.681,6.183,5.461
					c0.707,0.6,1.589,1.237,2.479,0.975c1.138-0.335,1.942-2.072,1.224-3.016C590.883,338.874,589.137,336.299,587.389,333.601z"/>
				<path style="fill-rule:evenodd;clip-rule:evenodd;fill:#7368E3;" d="M597.126,342.441c-1.291-1.14-3.852-2.967-5.53-2.619
					c0.281,0.479,0.362,1.528,0.041,1.981c-0.253,0.358-2.483,1.352-2.615,1.771c-0.497,1.58,6.464,2.959,2.65,7.413
					c-0.36,0.42-1.674,0.64-1.836,1.169c-0.162,0.529-0.102,1.157,0.28,1.557c0.037,0.038,0.077,0.061,0.116,0.091
					c4.811,0,5.984-2.627,7.67-5.22c-0.196-0.606-0.47-1.149-2.199-4.963c1.467,0.646,2.835,1.513,4.049,2.557l0.649-0.844
					C599.309,344.37,598.217,343.405,597.126,342.441z"/>
				<path style="fill-rule:evenodd;clip-rule:evenodd;fill:#7368E3;" d="M555.37,281.724c3.113-0.087,26.101,1.913,13.373-18.243
					c-1.773-2.808-6.269-3.114-9.567-3.529c-4.467-0.563-13.17-0.52-15.318,3.529C537.158,276.115,551.925,281.819,555.37,281.724z"
					/>
				<path style="fill:#2D3436;" d="M551.739,237.119c0.942-3.286,1.664-7.032,0.576-10.376c-0.34-1.045-0.405-1.212-1.341-0.693
					c-0.737,0.409-1.41,1.158-1.991,1.758c-1.187,1.228-2.193,2.623-3.057,4.092c-0.903,1.536-1.653,3.152-2.343,4.796l7.118,3.659
					C551.078,239.288,551.426,238.209,551.739,237.119z"/>
				<path style="fill:#F4A086;" d="M543.583,236.698c-0.457,1.089-0.888,2.189-1.317,3.288c-2.358,6.044-4.715,12.088-7.073,18.131
					c-0.223,0.571-0.449,1.194-0.276,1.782c0.273,0.934,1.476,1.325,2.41,1.049c0.934-0.276,1.646-1.019,2.291-1.748
					c4.862-5.491,8.642-11.932,11.083-18.844L543.583,236.698z"/>
				<path style="fill:#F4A086;" d="M524.532,274.073c-0.6,0.274-1.397,0.495-1.844,0.011c-0.425-0.46-0.191-1.196,0.075-1.762
					c2.249-4.786,12.475-16.306,14.853-16.358c2.219-0.049,3.209,1.147,2.42,3.202C538.43,263.347,526.935,272.976,524.532,274.073z
					"/>
				<path style="fill:#F7B690;" d="M523.5,275.307c-1.046,0.945-2.462,1.581-3.856,1.366c-1.119-0.173-2.099-0.873-2.845-1.723
					c-0.324-0.369-0.619-0.921-0.33-1.318c0.257-0.354,0.781-0.316,1.209-0.412c0.973-0.218,1.53-1.206,2.262-1.882
					c0.811-0.749,1.936-1.146,3.037-1.073c0.875,0.058,2.783,0.63,2.847,1.728C525.883,273.014,524.195,274.679,523.5,275.307z"/>
				<path style="fill:#2D3436;" d="M562.432,253.721c-2.034-7.781,5.318-14.308,3.321-22.092c-1.363-5.311-7.273-9.503-12.607-9.433
					s-7.971,3.661-9.104,8.647c-0.538,2.365-2.11,5.244-1.395,7.755c0.5,1.753,1.29,3.454,1.861,5.197
					c1.168,3.57,1.366,7.211,1.066,10.71c-0.262,3.052-1.392,5.962-1.716,8.977h24.885
					C567.826,262.224,563.019,255.967,562.432,253.721z"/>
				<g>
					<path style="fill:#3C79A6;" d="M545.471,242.839h-5.222c-0.309,0-0.63-0.25-0.716-0.559l-3.189-11.068
						c-0.087-0.309,0.094-0.559,0.403-0.559h5.222c0.309,0,0.63,0.25,0.716,0.559l3.189,11.068
						C545.961,242.589,545.781,242.839,545.471,242.839z"/>
					<path style="fill:#2E5D80;" d="M545.874,242.28l-3.189-11.068c-0.087-0.309-0.407-0.559-0.716-0.559h-0.557
						c0.309,0,0.63,0.25,0.716,0.559l3.189,11.068c0.086,0.309-0.094,0.559-0.403,0.559h0.557
						C545.781,242.839,545.961,242.589,545.874,242.28z"/>
				</g>
				<path style="fill-rule:evenodd;clip-rule:evenodd;fill:#6A60D1;" d="M561.751,352.299c0.075-1.076,0.148-2.172-0.113-3.218
					c-0.256-1.024-0.627-2.064-1.427-2.753c-0.21,0.514-0.741,1.213-1.297,1.235c-0.439,0.018-2.614-0.903-3.026-0.752
					c-0.297,0.108-0.777,4.326-2.088,5.22c-1.311,0.895-2.846,1.388-4.287,2.053c-0.503,0.232-1.007,0.495-1.375,0.908
					c-0.368,0.413-0.576,1.009-0.395,1.532c0.017,0.05,0.045,0.087,0.067,0.131h9.536c0.224-0.325,0.415-0.677,0.601-1.024
					c0.667-1.247,1.334-2.493,2.001-3.74c0.38,1.555,0.525,3.166,0.435,4.764h1.065C561.549,355.203,561.65,353.751,561.751,352.299
					z"/>
				<g>
					<path style="fill:#2D3436;" d="M568.738,232.345c-0.792-2.563-2.211-5.015-4.401-6.569c-0.538-0.382-1.23-0.716-1.837-0.455
						c-0.57,0.244-0.817,0.907-0.968,1.508c-0.991,3.947-0.43,8.078,0.27,12.107l7.937-1.24
						C569.549,235.883,569.276,234.083,568.738,232.345z"/>
					<path style="fill:#F7B690;" d="M569.973,240.28c-0.071-0.861-0.144-1.724-0.234-2.585l-7.937,1.24
						c0.067,0.385,0.135,0.77,0.203,1.153c0.717,4.028,1.434,8.056,2.151,12.085c0.269,1.511,0.231,3.328,1.593,4.311
						c0.977,0.705,2.411,0.871,3.444,0.193c0.896-0.588,1.418-1.625,1.617-2.677c0.198-1.052,0.112-2.135,0.024-3.202
						C570.548,247.292,570.26,243.786,569.973,240.28z"/>
					<path style="fill:#F7B690;" d="M549.831,242.633c-0.82-0.454-2.78-1.484-3.273-0.688c-0.382,0.618,0.877,2.116,1.433,2.584
						c3.856,3.245,17.743,12.258,18.885,12.537c1.882,0.461,5.281-2.938,3.604-5.101
						C568.779,249.769,557.287,246.76,549.831,242.633z"/>
					<path style="fill:#F7B690;" d="M548.163,240.346c-1.134-0.94-2.268-1.88-3.402-2.82c-0.319-0.031-0.474,0.428-0.332,0.716
						c0.142,0.287,0.437,0.464,0.642,0.71c0.206,0.246,0.292,0.669,0.029,0.854c-0.263,0.185-0.617-0.026-0.865-0.23
						c-1.148-0.943-2.296-1.886-3.444-2.829c-1.032,0.552-1.408,1.926-1.107,3.056c0.302,1.13,1.134,2.042,2.033,2.79
						c1.252,1.041,2.689,1.858,4.225,2.402c0.886,0.314,1.883,0.533,2.749,0.166C550.898,244.227,549.365,241.342,548.163,240.346z"
						/>
				</g>
				<path style="fill-rule:evenodd;clip-rule:evenodd;fill:#222B56;" d="M540.282,204.401c0.026-1.766,1.073-3.48,2.633-4.311
					c1.56-0.831,3.57-0.744,5.052,0.219c0.754,0.49,1.399,1.195,2.265,1.437c1.14,0.318,2.32-0.249,3.495-0.391
					c1.784-0.215,3.656,0.651,4.645,2.15c2.003,3.035,0.21,7.456,2.129,10.545c0.874,1.406,2.381,2.283,3.872,3.006
					c1.491,0.723,3.062,1.371,4.267,2.507c1.205,1.136,1.976,2.922,1.395,4.472c-0.416,1.108-1.418,1.876-2.405,2.53
					c-1.101,0.728-2.315,1.24-3.547,1.715c-2.85,1.097-6.066-1.408-7.658-4.938c-3.243-1.855-6.635-4.833-8.349-7.064
					c-0.94-1.223-1.05-2.885-1.743-4.263c-0.676-1.344-1.775-2.053-3.059-2.731c-0.96-0.506-1.858-1.501-2.371-2.438
					C540.496,206.099,540.27,205.252,540.282,204.401z"/>
				<path style="fill:#F4A086;" d="M548.875,216.441c1.879,2.689,1.344,7.68,1.372,7.713c0.657,0.744,4.417,0.484,6.178-0.814
					c-1.761-1.934-2.44-8.949-3.04-9.484c-0.575-0.513-1.506-0.416-2.147,0.011C550.221,214.545,549.505,214.297,548.875,216.441z"
					/>
				<path style="fill:#F7B690;" d="M546.776,217.955c-0.817-0.745-1.338-1.752-1.839-2.737c-0.689-1.356-1.377-2.736-1.674-4.227
					c-0.297-1.491-0.159-3.131,0.703-4.384c1.04-1.513,2.961-2.212,4.797-2.289c1.595-0.067,3.305,0.326,4.393,1.492
					c0.591,0.634,0.952,1.442,1.303,2.234c0.456,1.029,0.919,2.086,0.984,3.21c0.072,1.244-0.356,2.478-1.014,3.537
					c-0.658,1.059-1.537,1.961-2.442,2.819c-0.522,0.496-1.067,0.988-1.722,1.289C548.961,219.495,547.76,218.852,546.776,217.955z"
					/>
				<path style="fill-rule:evenodd;clip-rule:evenodd;fill:#222B56;" d="M549.184,207.037c1.118,1.116,1.542,2.901,2.919,3.675
					c1.12,0.629,2.684,0.295,3.449-0.736c0.583-0.786,0.687-1.867,0.386-2.797c-0.3-0.93-0.969-1.714-1.768-2.278
					c-0.8-0.564-1.727-0.924-2.669-1.19c-1.45-0.41-2.982-0.61-4.47-0.372c-0.943,0.151-1.865,0.487-2.662,1.017
					c-0.602,0.4-1.738,1.248-1.615,2.094c0.122,0.836,0.855,0.716,1.343,0.354c0.743-0.551,1.463-0.903,2.421-0.89
					C547.507,205.927,548.484,206.339,549.184,207.037z"/>
				<path style="fill:#F7B690;" d="M553.961,209.655c0.225-0.194,0.469-0.372,0.75-0.468c0.281-0.096,0.604-0.1,0.863,0.045
					c0.349,0.195,0.513,0.612,0.557,1.009c0.112,1-0.437,1.965-1.473,2.145c-0.785,0.136-1.321-0.412-1.457-1.163
					C553.086,210.58,553.502,210.051,553.961,209.655z"/>
			</g>
			<g>
				<path style="fill:#BD681C;" d="M458.134,332.169l4.753,8.505c0.59,1.072,1.431,1.986,2.45,2.665l7.352,4.894
					c1.368,0.911,2.405,2.24,2.954,3.787l1.093,3.079l0.248-3.523c0.098-1.39-0.188-2.779-0.828-4.017l-3.051-5.91
					c-0.65-1.259-0.935-2.675-0.822-4.088l0,0c0.345-4.333-3.01-8.073-7.361-8.205L458.134,332.169z"/>
				<path style="fill:#BD681C;" d="M484.039,340.496l0.255,0.326c0.702,0.898,1.634,1.59,2.697,2.003l0.173,0.067
					c2.836,1.103,4.489,4.061,3.939,7.05l-0.95,5.156l5.454-7.356c1.226-1.653,1.572-3.797,0.928-5.751l-0.832-2.524
					c-0.211-0.639-0.318-1.308-0.318-1.981v-0.892c0-3.642-3.066-6.534-6.707-6.326l0,0
					C483.565,330.56,480.886,336.467,484.039,340.496z"/>
				<path style="fill:#E57E22;" d="M495.427,322.515c-12.942-2.528-20.626-7.148-27.804-7.148c-6.434,0-11.06,4.945-11.06,11.044
					s4.952,11.044,11.06,11.044h26.073c4.187,0,7.581-3.389,7.581-7.57l0,0C501.278,326.37,498.854,323.317,495.427,322.515z"/>
				<path style="fill:#E57E22;" d="M463.441,334.097l-0.195,5.628c-0.073,2.096-1.202,4.014-3,5.097l-2.087,1.257
					c-1.561,0.94-2.63,2.518-2.923,4.315l-0.55,3.375l1.413-2.469c0.873-1.526,2.354-2.61,4.074-2.984l7.346-1.595
					c1.766-0.383,3.277-1.516,4.139-3.102l3.451-6.348c1.933-3.556-0.006-7.979-3.934-8.972l0,0
					C467.334,327.328,463.578,330.145,463.441,334.097z"/>
				<path style="fill:#BD681C;" d="M499.982,325.653c7.777-1.325,15.635-6.926,23.555-15.73
					c-2.199,20.334-13.659,20.334-22.571,17.814L499.982,325.653z"/>
				<path style="fill:#E57E22;" d="M489.684,339.786l2.699,3.291c0.774,0.944,1.826,1.62,3.007,1.933l5.439,1.442
					c1.619,0.429,2.975,1.535,3.719,3.034l3.559,7.17v-9.082c0-1.576-0.642-3.085-1.778-4.18l-3.3-3.179
					c-1.136-1.095-1.778-2.603-1.778-4.18v-6.15l-7.4,0.422C489.104,330.578,486.671,336.113,489.684,339.786z"/>
				<path style="fill:#BD681C;" d="M456.564,326.411l-0.137-22.133l10.803,1.327l3.124,9.966
					C467.749,324.718,456.564,329.107,456.564,326.411z"/>
				<g>
					<path style="fill:#78A5B3;" d="M457.703,327.514c-0.132,0-0.255-0.007-0.369-0.024c-0.692-0.096-1.088-0.49-1.088-1.079h0.637
						c0,0.112,0,0.375,0.54,0.45c2.306,0.314,10.441-3.706,12.626-11.377l0.612,0.174
						C468.497,323.25,460.771,327.514,457.703,327.514z"/>
				</g>
				<path style="fill:#BD681C;" d="M458.959,302.071l0.331-10.837c4.987,1.384,4.28,7.652,4.726,11.502L458.959,302.071z"/>
				<path style="fill:#E57E22;" d="M461.582,300.761c-7.834-0.221-4.05,4.977-13.904,4.977c-0.556,0-1.007,0.45-1.007,1.006l0,0
					c0,0.419,0.26,0.794,0.653,0.941l11.873,4.458l-0.002-0.003c0.685,0.277,1.432,0.432,2.216,0.432
					c3.364,0,6.072-2.804,5.908-6.199C467.172,303.328,464.634,300.848,461.582,300.761z"/>
				<path style="fill:#E57E22;" d="M462.714,302.43l4.612-9.815c4.027,3.247,0.886,8.72-0.236,12.43L462.714,302.43z"/>
				<path style="fill:#BD681C;" d="M446.789,306.273c0.137-0.689,0.555-1.527,1.292-1.527c0.611,0,1.044,0.362,1.305,0.933
					C449.053,306.193,446.578,307.336,446.789,306.273z"/>
				<g>
					<polygon style="fill:#78A5B3;" points="470.559,315.813 470.148,315.329 520.302,272.855 520.713,273.34 					"/>
				</g>
			</g>
		</g>
		<g>
			<path style="fill:#F7B690;" d="M332.876,323.285c0.105,3.834,3.961,14.004,4.932,24.835c0.139,0.68,3.558,0.656,3.742,0.066
				c0.463-12.344,2.842-26.835,1.468-34.292c-0.458-2.488-4.848-6.828-6.873-3.954C334.301,312.557,332.789,320.103,332.876,323.285
				z"/>
			<path style="fill-rule:evenodd;clip-rule:evenodd;fill:#18898D;" d="M336.212,352.421c-0.073-1.045-0.144-2.111,0.11-3.128
				c0.249-0.995,0.609-2.006,1.387-2.676c0.204,0.5,0.72,1.179,1.26,1.201c0.427,0.017,2.541-0.878,2.942-0.731
				c0.289,0.105,0.755,4.205,2.029,5.074c1.274,0.87,2.767,1.349,4.167,1.996c0.488,0.225,0.979,0.481,1.337,0.883
				c0.358,0.401,0.56,0.981,0.384,1.489c-0.017,0.049-0.044,0.085-0.065,0.128h-9.269c-0.217-0.316-0.404-0.659-0.584-0.996
				c-0.648-1.212-1.297-2.423-1.945-3.635c-0.369,1.511-0.51,3.078-0.423,4.631h-1.035
				C336.409,355.244,336.31,353.832,336.212,352.421z"/>
			<path style="fill:#F7B690;" d="M348.493,322.422c-0.504,3.804,1.724,14.212,0.973,25.019c0.03,0.686,3.44,0.964,3.716,0.396
				c2.419-12.178,7.088-26.312,6.902-33.815c-0.062-2.504-3.745-7.187-6.219-4.521C351.615,311.928,348.911,319.265,348.493,322.422
				z"/>
			<path style="fill-rule:evenodd;clip-rule:evenodd;fill:#18898D;" d="M348.025,352.421c-0.073-1.045-0.144-2.111,0.11-3.128
				c0.249-0.995,0.609-2.006,1.388-2.676c0.204,0.5,0.72,1.179,1.26,1.201c0.427,0.017,2.541-0.878,2.942-0.731
				c0.289,0.105,0.755,4.205,2.03,5.074c1.274,0.87,2.767,1.349,4.167,1.996c0.488,0.225,0.979,0.481,1.337,0.883
				c0.358,0.401,0.56,0.981,0.384,1.489c-0.017,0.049-0.043,0.085-0.065,0.128h-9.269c-0.217-0.316-0.404-0.659-0.584-0.996
				c-0.648-1.212-1.297-2.423-1.945-3.635c-0.369,1.511-0.51,3.078-0.423,4.631h-1.035
				C348.222,355.244,348.123,353.832,348.025,352.421z"/>
			<path style="fill-rule:evenodd;clip-rule:evenodd;fill:#18898D;" d="M352.899,266.324c-7.07-11.237-20.203-6.456-23.61,0.376
				c-2.027,4.066-2.468,9.306-0.381,13.128c1.165,5.427,2.119,3.645,5.16,33.156c1.103,2.546,19.016,2.207,24.585,1.064
				c1.62-0.149,1.735-0.4,1.778-1.781C362.193,298.072,357.404,273.484,352.899,266.324z"/>
			<path style="fill-rule:evenodd;clip-rule:evenodd;fill:#222B54;" d="M352.058,255.501c0.985-2.345,1.198-6.01,2.308-8.298
				c1.715-3.535,3.314-5.154,3.314-8.11c0-4.74-5.361-6.183-8.208-11.592c-1.556-2.957-4.338-2.927-6.799-2.927
				c-2.489,0-5.404,6.887-5.319,9.719c0.17,5.662,3.53,10.058,2.818,15.762c-0.761,6.093-4.33,8.924-8.982,13.975l22.832,4.451
				C353.451,266.127,349.519,261.545,352.058,255.501z"/>
			<path style="fill-rule:evenodd;clip-rule:evenodd;fill:#0A3C5F;" d="M339.069,234.916c0.171,2.093,0.756,4.13,1.433,6.118
				c1.815,5.325,4.316,10.417,7.424,15.108c0.518,0.783,1.073,1.574,1.856,2.093c0.783,0.519,1.853,0.712,2.664,0.237
				c1.197-0.7,1.277-2.372,1.169-3.754c-0.503-6.426-1.94-12.738-3.372-19.022c-0.526-2.309-1.132-4.761-2.859-6.384
				c-1.591-1.495-4.531-2.203-6.543-1.115C338.881,229.257,338.914,233.009,339.069,234.916z"/>
			<path style="fill-rule:evenodd;clip-rule:evenodd;fill:#0A3C5F;" d="M367.897,247.412c0.838,0.312,0.785,1.524,0.443,2.349
				c-0.936,2.262-14.948,10.17-16.862,8.98c-1.157-0.719-3.089-2.898-3.051-4.287C348.474,252.777,367.548,247.282,367.897,247.412z
				"/>
			<path style="fill:#F7B690;" d="M367.038,247.393c1.095-2.447,1.88-5.34,2.992-6.341c0.903-0.813,0.349,1.425,0.376,2.639
				c1.657-2.892,2.946-2.588,5.247-3.302c2.383-0.741-4.42,9.653-8.231,10.182L367.038,247.393z"/>
			<g>
				<path style="fill:#F4A086;" d="M342.872,215.004c0.399-0.752,4.779,1.503,5.04,2.043c0.26,0.54,0.536,6.65,1.473,10.464
					c0.202,0.823-7.968-1.697-7.388-2.694C342.937,223.202,343.898,217.039,342.872,215.004z"/>
				<path style="fill:#F7B690;" d="M355.497,209.496c-1.513-6.268-10.099-4.946-12.138-4.321c-2.039,0.625-2.091,3.505-2.288,5.626
					c-0.121,1.309,0.353,2.611,1.133,3.65c0.75,0.999,4.016,2.504,4.2,2.543c1.212,2.086,3.182,4.471,5.186,4.442
					c0.902-0.013,1.721-0.591,2.251-1.321c0.53-0.73,0.82-1.601,1.103-2.457C355.822,215.003,356.154,212.216,355.497,209.496z"/>
				<path style="fill:#2D3436;" d="M340.637,213.139c-0.748-0.902-1.332-1.974-1.479-3.135c-0.174-1.375,0.283-2.779,1.058-3.928
					c1.383-2.052,4.954-4.701,7.84-4.759c3.082-0.063,8.377,3.003,7.874,6.811c-0.15,1.139-0.777,1.148-1.869,1.512
					c-1.438,0.479-3.368,0.811-4.561,1.746c-1.427,1.118-0.792,3.815-3.713,4.691c-0.944,0.283-1.914,1.948-2.541,3.243
					C342.501,218.473,341.36,214.011,340.637,213.139z"/>
				<path style="fill:#F7B690;" d="M344.52,213.619c-0.153,0.142-0.232,0.347-0.28,0.55c-0.15,0.638-0.031,1.334,0.322,1.886
					c0.353,0.552,0.935,0.953,1.577,1.087c0.255,0.053,0.536,0.061,0.758-0.074c0.764-0.465,0.377-2.085,0.009-2.713
					C346.524,213.704,345.171,213.015,344.52,213.619z"/>
				<path style="fill:#2D3436;" d="M337.368,215.513c-1.224,1.108-1.859,2.833-1.643,4.469c0.204,1.549,1.11,2.974,1.111,4.537
					c0.001,1.254-0.583,2.431-1.225,3.509c-1.624,2.728-3.708,5.182-6.14,7.226c-0.266,0.224-0.564,0.514-0.5,0.856
					c0.079,0.419,0.616,0.537,1.042,0.557c1.61,0.075,3.24,0.049,4.811-0.311c1.571-0.359,3.091-1.071,4.223-2.218
					c1.26-1.276,1.971-3.036,2.127-4.822c0.156-1.785-0.22-3.591-0.91-5.245c-0.402-0.964-0.912-1.888-1.19-2.895
					c-0.277-1.007-0.296-2.144,0.251-3.034c0.48-0.782,1.326-1.27,1.879-2.002c0.26-0.345,0.707-1.057,0.632-1.517
					c-0.09-0.557-0.744-0.449-1.232-0.426C339.42,214.253,338.249,214.715,337.368,215.513z"/>
				<path style="fill-rule:evenodd;clip-rule:evenodd;fill:#0A3C5F;" d="M339.52,215.358c0.187,0.4,0.507,0.72,0.833,1.019
					c0.28,0.257,0.575,0.508,0.927,0.651c0.352,0.143,0.774,0.161,1.098-0.038c0.404-0.249,0.558-0.782,0.494-1.252
					c-0.113-0.823-0.784-2.243-1.73-2.306C340.035,213.357,338.988,214.223,339.52,215.358z"/>
			</g>
		</g>
	</g>
</g>
</svg>
