<svg xmlns="http://www.w3.org/2000/svg" version="1.1" xmlns:xlink="http://www.w3.org/1999/xlink" xmlns:svgjs="http://svgjs.dev/svgjs" width="2000" height="1550" viewBox="0 0 2000 1550"><g transform="matrix(1,0,0,1,-1.2074587687930034,0.567003192665652)"><svg viewBox="0 0 396 307" data-background-color="#ca3433" preserveAspectRatio="xMidYMid meet" height="1550" width="2000" xmlns="http://www.w3.org/2000/svg" xmlns:xlink="http://www.w3.org/1999/xlink"><g id="tight-bounds" transform="matrix(1,0,0,1,0.23918581568605646,-0.1123032129989383)"><svg viewBox="0 0 395.5199999999999 307.2246064259979" height="307.2246064259979" width="395.5199999999999"><g><svg viewBox="0 0 395.5199999999999 307.2246064259979" height="307.2246064259979" width="395.5199999999999"><g transform="matrix(1,0,0,1,0,168.70943770908633)"><svg viewBox="0 0 395.5199999999999 138.51516871691152" height="138.51516871691152" width="395.5199999999999"><g id="textblocktransform"><svg viewBox="0 0 395.5199999999999 138.51516871691152" height="138.51516871691152" width="395.5199999999999" id="textblock"><g><svg viewBox="0 0 395.5199999999999 113.72299589586324" height="113.72299589586324" width="395.5199999999999"><g transform="matrix(1,0,0,1,0,0)"><svg width="395.5199999999999" viewBox="-0.7175681251755697 -18.901570000000003 93.45412867443706 26.870690000000003" height="113.72299589586324" data-palette-color="#ffffff"><path d="M8.652-11.522v0c1.49-0.438 2.582-0.363 3.276 0.225v0c0.259 0.883 0.308 1.567 0.145 2.053-0.157 0.484-0.436 0.785-0.839 0.903v0c-0.454 0.133-0.933 0.041-1.436-0.276-0.503-0.318-1.084-0.38-1.744-0.186v0c-0.78 0.229-1.353 0.797-1.719 1.704-0.361 0.898-0.424 1.75-0.187 2.556v0l1.67 5.68c0.429 1.458 0.858 2.552 1.287 3.28v0c0.102 0.158 0.488 0.228 1.157 0.212 0.661-0.021 1.119-0.068 1.375-0.143v0c0.077-0.023 0.17 0.117 0.28 0.418 0.114 0.293 0.167 0.51 0.16 0.651v0c-2.564 0.615-3.945 0.951-4.144 1.01v0c-0.154 0.045-1.51 0.513-4.069 1.404v0c-0.132-0.072-0.245-0.265-0.337-0.578-0.094-0.32-0.09-0.495 0.013-0.525v0c0.301-0.088 0.725-0.3 1.273-0.635 0.546-0.341 0.816-0.605 0.81-0.79v0c-0.037-0.788-0.207-1.697-0.51-2.727v0l-2.104-7.158c-0.288-0.979-0.664-1.608-1.128-1.888v0c-0.344-0.225-0.716-0.342-1.114-0.35-0.397-0.002-0.713 0.032-0.95 0.102-0.243 0.071-0.372 0.082-0.387 0.03v0c-0.179-0.608-0.195-0.947-0.049-1.017v0c2.555-1.189 4.199-2.026 4.931-2.513v0c0.026-0.008 0.062-0.025 0.11-0.053 0.047-0.028 0.071-0.042 0.071-0.042v0c0.096-0.028 0.188 0.059 0.275 0.263 0.09 0.21 0.137 0.37 0.141 0.48v0l0.335 1.955c0.253-0.818 0.69-1.638 1.31-2.459 0.618-0.828 1.318-1.357 2.098-1.586zM26.273-13.386v0c-1.352 0.202-2.298 0.932-2.838 2.192-0.546 1.268-0.762 2.277-0.65 3.029v0c0.028 0.185 0.12 0.265 0.279 0.242v0l7.605-1.135c0.132-0.02 0.178-0.161 0.139-0.425v0c-0.124-0.831-0.619-1.734-1.486-2.71-0.859-0.971-1.876-1.368-3.049-1.193zM26.453-14.889v0c1.193-0.178 2.279-0.107 3.257 0.211 0.978 0.319 1.76 0.799 2.348 1.44 0.589 0.647 1.047 1.323 1.374 2.029 0.334 0.705 0.556 1.424 0.666 2.156v0c0.078 0.521 0.046 0.849-0.096 0.985-0.134 0.141-0.422 0.245-0.864 0.31v0l-9.831 1.467c-0.211 0.031-0.307 0.113-0.287 0.245v0c0.244 1.635 0.963 3.068 2.158 4.298 1.195 1.231 2.728 1.706 4.601 1.427v0c0.547-0.082 1.061-0.209 1.54-0.381 0.479-0.179 0.882-0.367 1.21-0.565 0.328-0.197 0.603-0.383 0.827-0.558 0.229-0.182 0.426-0.353 0.591-0.513v0l0.239-0.227c0.158-0.024 0.262 0.133 0.312 0.469v0c0.03 0.204-0.014 0.45-0.132 0.737v0c-0.413 0.803-1.08 1.573-2.001 2.311-0.928 0.738-1.992 1.197-3.192 1.376v0c-2.156 0.322-4.13-0.216-5.923-1.614-1.785-1.392-2.852-3.258-3.201-5.599v0c-0.407-2.73 0.006-4.999 1.239-6.807 1.228-1.801 2.949-2.866 5.165-3.197zM47.002-16.38v0c0.58-0.007 1.311 0.058 2.193 0.194 0.882 0.13 1.493 0.219 1.833 0.269v0c0.281 1.21 0.456 2.548 0.527 4.014v0c0.002 0.133-0.171 0.202-0.518 0.206v0c-0.367 0.004-0.564-0.087-0.593-0.273v0c-0.142-0.732-0.523-1.421-1.144-2.067-0.628-0.653-1.335-0.975-2.121-0.965v0c-1.893 0.022-2.831 0.81-2.813 2.363v0c0.005 0.393 0.062 0.739 0.172 1.038 0.11 0.299 0.317 0.586 0.62 0.863 0.303 0.27 0.535 0.464 0.697 0.582 0.161 0.118 0.51 0.324 1.047 0.617 0.543 0.294 0.882 0.48 1.017 0.559v0c0.107 0.052 0.419 0.225 0.936 0.519 0.51 0.301 0.873 0.513 1.087 0.637 0.215 0.131 0.527 0.354 0.938 0.669 0.41 0.309 0.707 0.585 0.89 0.83 0.19 0.251 0.373 0.566 0.551 0.943 0.171 0.378 0.259 0.764 0.264 1.157v0c0.018 1.553-0.57 2.857-1.765 3.911-1.201 1.047-2.615 1.581-4.242 1.6v0c-0.553 0.006-1.06-0.018-1.521-0.072-0.461-0.061-1.005-0.168-1.633-0.321-0.635-0.153-1.123-0.254-1.464-0.303v0c-0.165-0.418-0.326-1.073-0.483-1.965-0.15-0.892-0.229-1.601-0.235-2.127v0c0.205-0.156 0.361-0.234 0.468-0.236v0c0.393-0.005 0.604 0.07 0.632 0.223v0c0.169 0.791 0.672 1.556 1.507 2.293 0.835 0.737 1.74 1.1 2.713 1.088v0c0.84-0.01 1.527-0.248 2.062-0.714 0.535-0.466 0.797-1.133 0.786-1.999v0c-0.005-0.447-0.097-0.859-0.274-1.237-0.171-0.378-0.452-0.715-0.842-1.011-0.384-0.302-0.74-0.548-1.069-0.737-0.329-0.196-0.799-0.447-1.408-0.754-0.61-0.313-1.06-0.558-1.349-0.734v0c-2.067-1.163-3.11-2.557-3.129-4.184v0c-0.017-1.42 0.543-2.583 1.679-3.49 1.129-0.907 2.458-1.369 3.984-1.386zM60.645-3.216l1.165-9.953-2.265-0.265c-0.132-0.016-0.167-0.295-0.103-0.837v0c0.019-0.159 0.043-0.25 0.072-0.274v0c0.794-0.249 1.696-0.845 2.707-1.787v0c0.331-0.304 0.657-0.655 0.979-1.054 0.328-0.398 0.601-0.745 0.816-1.042 0.222-0.289 0.334-0.447 0.338-0.474v0c0.781 0.091 1.164 0.203 1.149 0.336v0l-0.454 3.874c0.682 0.08 1.714 0.207 3.097 0.383 1.382 0.175 2.11 0.267 2.182 0.275v0c0.212 0.025 0.304 0.153 0.277 0.385v0c-0.055 0.47-0.246 0.951-0.571 1.443v0l-5.205-0.609-1.123 9.594c-0.122 1.046 0.048 1.915 0.51 2.608 0.463 0.685 1.126 1.078 1.987 1.179v0c0.781 0.091 1.618-0.062 2.51-0.462v0c0.085-0.037 0.191 0.089 0.318 0.38 0.121 0.289 0.166 0.446 0.137 0.469v0c-0.44 0.371-1.087 0.712-1.942 1.021-0.856 0.316-1.714 0.424-2.575 0.323v0c-1.304-0.153-2.343-0.714-3.116-1.684-0.78-0.964-1.077-2.24-0.89-3.829zM85.484-9.673v0c-1.349-0.347-2.609-0.014-3.779 1-1.17 1.014-1.984 2.411-2.443 4.193v0c-0.537 2.085-0.455 4.013 0.246 5.784 0.694 1.769 1.767 2.841 3.22 3.215v0c1.349 0.347 2.62-0.003 3.813-1.053 1.193-1.049 2.018-2.465 2.477-4.246v0c0.532-2.066 0.438-3.973-0.282-5.721-0.715-1.74-1.799-2.797-3.252-3.172zM86.294-11.054v0c2.285 0.589 4.032 1.919 5.24 3.993 1.2 2.078 1.502 4.273 0.907 6.584v0c-0.604 2.344-1.914 4.144-3.931 5.4-2.025 1.261-4.197 1.594-6.515 0.997-2.311-0.595-4.068-1.939-5.271-4.032-1.198-2.085-1.495-4.299-0.892-6.642v0c0.608-2.363 1.911-4.158 3.907-5.386 2.001-1.22 4.186-1.524 6.555-0.914z" opacity="1" transform="matrix(1,0,0,1,0,0)" fill="#ffffff" class="wordmark-text-0" data-fill-palette-color="primary" id="text-0"></path></svg></g></svg></g><g transform="matrix(1,0,0,1,118.31980799999998,124.82021471248902)"><svg viewBox="0 0 158.88038399999996 13.694954004422517" height="13.694954004422517" width="158.88038399999996"><g transform="matrix(1,0,0,1,0,0)"><svg width="158.88038399999996" viewBox="1 -37.99 574.06 49.49" height="13.694954004422517" data-palette-color="#ffffff"><path d="M11.06 0L11.06-4.2 14.45-4.2 14.45-33.01 6.01-33.01 6.01-27.25 1-27.25 1-37.01 34.01-37.01 34.01-27.25 29-27.25 29-33.01 19.24-33.01 19.24-4.2 23.05-4.2 23.05 0 11.06 0ZM47.31 0L47.31-2.34Q45.87-1 44.13-0.15 42.38 0.71 40.16 0.71L40.16 0.71Q38.3 0.71 36.75 0.12 35.2-0.46 34.08-1.48 32.96-2.49 32.33-3.83 31.71-5.18 31.71-6.69L31.71-6.69Q31.71-8.3 32.19-9.55 32.66-10.79 33.46-11.71 34.25-12.62 35.31-13.24 36.37-13.87 37.53-14.25 38.69-14.62 39.9-14.78 41.11-14.94 42.21-14.94L42.21-14.94Q43.97-14.94 45.16-14.83 46.36-14.72 47.34-14.53L47.34-14.53 47.36-16.6Q47.36-17.94 46.97-18.93 46.58-19.92 45.87-20.57 45.16-21.22 44.17-21.53 43.19-21.85 41.97-21.85L41.97-21.85Q40.82-21.85 39.77-21.69 38.72-21.53 37.8-21.28 36.89-21.02 36.12-20.69 35.35-20.36 34.81-20L34.81-20 33.32-23.14Q34.23-23.73 35.3-24.23 36.37-24.73 37.56-25.09 38.74-25.44 39.98-25.65 41.21-25.85 42.4-25.85L42.4-25.85Q44.6-25.85 46.36-25.33 48.12-24.8 49.34-23.71 50.56-22.61 51.22-20.91 51.88-19.21 51.88-16.85L51.88-16.85 51.85-4.2 54.66-4.2 54.66 0 47.31 0ZM41.16-3.1L41.16-3.1Q42.06-3.1 42.97-3.32 43.87-3.54 44.68-3.92 45.48-4.3 46.16-4.8 46.85-5.3 47.31-5.83L47.31-5.83 47.34-11.55 42.06-11.55Q40.74-11.55 39.66-11.25 38.57-10.96 37.78-10.4 36.98-9.84 36.55-9.01 36.11-8.18 36.11-7.1L36.11-7.1Q36.11-6.1 36.47-5.36 36.84-4.61 37.51-4.11 38.18-3.61 39.11-3.36 40.04-3.1 41.16-3.1ZM74.38-18.51Q74.38-19.53 73.91-20.25 73.43-20.97 72.68-21.42 71.92-21.88 70.99-22.08 70.06-22.29 69.18-22.29L69.18-22.29Q68.21-22.29 67.39-22.07 66.57-21.85 65.99-21.44 65.4-21.02 65.07-20.42 64.74-19.82 64.74-19.09L64.74-19.09Q64.74-17.82 65.51-17.08 66.28-16.33 68.09-15.7L68.09-15.7 72.94-13.99Q76.07-12.94 77.51-11.13 78.95-9.33 78.95-6.81L78.95-6.81Q78.95-5.13 78.28-3.72 77.61-2.32 76.37-1.33 75.14-0.34 73.41 0.21 71.67 0.76 69.55 0.76L69.55 0.76Q66.6 0.76 64.74-0.2 62.89-1.15 61.88-2.71L61.88-2.71 59.35-2.71 59.35-6.91 64.4-6.91Q64.4-5.86 64.85-5.11 65.3-4.37 66.05-3.91 66.79-3.44 67.73-3.22 68.67-3 69.65-3L69.65-3Q70.6-3 71.48-3.23 72.36-3.47 73.03-3.92 73.7-4.37 74.09-5 74.48-5.64 74.48-6.45L74.48-6.45Q74.48-7.67 73.69-8.52 72.9-9.38 70.99-10.06L70.99-10.06 66.16-11.87Q63.2-12.92 61.77-14.54 60.35-16.16 60.35-18.6L60.35-18.6Q60.35-20.21 60.94-21.58 61.54-22.95 62.68-23.94 63.81-24.93 65.45-25.49 67.08-26.05 69.18-26.05L69.18-26.05Q71.89-26.05 73.73-25.29 75.56-24.54 77.02-22.71L77.02-22.71 79.39-22.71 79.39-18.51 74.38-18.51ZM91.35-33.45L91.35-25.29 97.28-25.29 97.28-21.61 91.3-21.61 91.23-7.01Q91.23-5.52 91.57-4.59 91.91-3.66 92.67-3.31 93.43-2.95 94.38-2.95L94.38-2.95Q95.4-2.95 96.18-3.14 96.97-3.32 97.89-3.76L97.89-3.76 98.94-0.71Q97.77-0.1 96.48 0.26 95.18 0.61 93.43 0.61L93.43 0.61Q91.76 0.61 90.53 0.21 89.3-0.2 88.46-1.15 87.61-2.1 87.2-3.7 86.78-5.3 86.78-7.69L86.78-7.69 86.86-21.61 82.83-21.61 82.83-25.29 86.91-25.29 86.91-31.35 91.35-33.45ZM125.14-12.06L106.92-12.06Q106.92-10.99 107.08-10.1 107.24-9.2 107.53-8.4L107.53-8.4Q108.44-5.96 110.43-4.72 112.42-3.49 114.93-3.49L114.93-3.49Q116.91-3.49 118.78-4.04 120.64-4.59 122.7-5.76L122.7-5.76 124.53-2.66Q122.04-0.95 119.52-0.12 117.01 0.71 114.3 0.71L114.3 0.71Q111.73 0.71 109.55-0.15 107.36-1 105.79-2.69 104.21-4.37 103.32-6.88 102.43-9.4 102.43-12.74L102.43-12.74Q102.43-15.45 103.19-17.86 103.95-20.26 105.45-22.06 106.95-23.85 109.17-24.9 111.39-25.95 114.35-25.95L114.35-25.95Q117.2-25.95 119.12-25.09 121.03-24.22 122.24-22.79 123.45-21.36 124.07-19.53 124.7-17.7 124.94-15.8L124.94-15.8Q125.06-14.87 125.1-13.92 125.14-12.96 125.14-12.06L125.14-12.06ZM114.03-22.14L114.03-22.14Q112.44-22.14 111.26-21.69 110.07-21.24 109.24-20.4 108.41-19.56 107.91-18.33 107.41-17.11 107.17-15.6L107.17-15.6 120.28-15.6Q120.18-17.02 119.83-18.21 119.47-19.41 118.74-20.29 118.01-21.17 116.86-21.66 115.71-22.14 114.03-22.14ZM128.87 0Q128.87 0 128.87 0ZM149.57-33.45L149.57-25.29 155.5-25.29 155.5-21.61 149.52-21.61 149.45-7.01Q149.45-5.52 149.79-4.59 150.13-3.66 150.89-3.31 151.65-2.95 152.6-2.95L152.6-2.95Q153.62-2.95 154.4-3.14 155.19-3.32 156.11-3.76L156.11-3.76 157.16-0.71Q155.99-0.1 154.7 0.26 153.4 0.61 151.65 0.61L151.65 0.61Q149.99 0.61 148.75 0.21 147.52-0.2 146.68-1.15 145.83-2.1 145.42-3.7 145-5.3 145-7.69L145-7.69 145.08-21.61 141.05-21.61 141.05-25.29 145.13-25.29 145.13-31.35 149.57-33.45ZM161.19-33.79L161.19-37.99 169.2-37.99 169.2-22.51 169.34-22.51Q170.03-23.19 170.92-23.79 171.81-24.39 172.79-24.83 173.76-25.27 174.81-25.51 175.86-25.76 177.01-25.76L177.01-25.76Q179.04-25.76 180.67-25.2 182.31-24.63 183.45-23.49 184.6-22.34 185.22-20.54 185.85-18.75 185.85-16.31L185.85-16.31 185.85-4.2 189.66-4.2 189.66 0 177.64 0 177.64-4.2 181.11-4.2 181.11-15.75Q181.11-18.65 179.63-20.15 178.16-21.66 175.4-21.66L175.4-21.66Q173.84-21.66 172.22-20.91 170.61-20.17 169.2-19.04L169.2-19.04 169.2-4.2 172.86-4.2 172.86 0 160.85 0 160.85-4.2 164.66-4.2 164.66-33.79 161.19-33.79ZM216.41-12.06L198.2-12.06Q198.2-10.99 198.36-10.1 198.52-9.2 198.81-8.4L198.81-8.4Q199.71-5.96 201.7-4.72 203.69-3.49 206.21-3.49L206.21-3.49Q208.18-3.49 210.05-4.04 211.92-4.59 213.97-5.76L213.97-5.76 215.8-2.66Q213.31-0.95 210.8-0.12 208.28 0.71 205.57 0.71L205.57 0.71Q203.01 0.71 200.82-0.15 198.64-1 197.06-2.69 195.49-4.37 194.6-6.88 193.71-9.4 193.71-12.74L193.71-12.74Q193.71-15.45 194.46-17.86 195.22-20.26 196.72-22.06 198.22-23.85 200.44-24.9 202.67-25.95 205.62-25.95L205.62-25.95Q208.48-25.95 210.39-25.09 212.31-24.22 213.52-22.79 214.73-21.36 215.35-19.53 215.97-17.7 216.22-15.8L216.22-15.8Q216.34-14.87 216.37-13.92 216.41-12.96 216.41-12.06L216.41-12.06ZM205.3-22.14L205.3-22.14Q203.72-22.14 202.53-21.69 201.35-21.24 200.52-20.4 199.69-19.56 199.19-18.33 198.69-17.11 198.44-15.6L198.44-15.6 211.55-15.6Q211.45-17.02 211.1-18.21 210.75-19.41 210.01-20.29 209.28-21.17 208.13-21.66 206.99-22.14 205.3-22.14ZM220.14 0Q220.14 0 220.14 0ZM234.57-32.79L234.57-37.01 261.08-37.01 261.08-26.54 256.08-26.54 256.08-32.79 242.87-32.79 242.87-20.95 253.98-20.95 253.98-16.75 242.87-16.75 242.87-4.2 256.08-4.2 256.08-10.45 261.08-10.45 261.08 0 234.57 0 234.57-4.2 238.09-4.2 238.09-32.79 234.57-32.79ZM279.42 0L279.42-4.2 280.86-4.2 275.83-10.45 270.92-4.2 272.16-4.2 272.16 0 263.77 0 263.77-4.2 265.82-4.2 273.51-13.16 266.28-21.09 263.72-21.09 263.72-25.29 272.12-25.29 272.12-21.09 271.16-21.09 275.83-15.09 280.54-21.09 279.32-21.09 279.32-25.29 287.72-25.29 287.72-21.09 285.54-21.09 278.39-12.84 285.96-4.2 287.81-4.2 287.81 0 279.42 0ZM298.85-33.45L298.85-25.29 304.78-25.29 304.78-21.61 298.8-21.61 298.72-7.01Q298.72-5.52 299.07-4.59 299.41-3.66 300.17-3.31 300.92-2.95 301.87-2.95L301.87-2.95Q302.9-2.95 303.68-3.14 304.46-3.32 305.39-3.76L305.39-3.76 306.44-0.71Q305.27-0.1 303.97 0.26 302.68 0.61 300.92 0.61L300.92 0.61Q299.26 0.61 298.03 0.21 296.8-0.2 295.95-1.15 295.11-2.1 294.7-3.7 294.28-5.3 294.28-7.69L294.28-7.69 294.35-21.61 290.33-21.61 290.33-25.29 294.4-25.29 294.4-31.35 298.85-33.45ZM328.31-25.44L328.31-19.95 323.67-19.95 323.67-21.51Q322.87-21.51 322.03-21.2 321.18-20.9 320.45-20.28 319.72-19.65 319.17-18.69 318.62-17.72 318.38-16.41L318.38-16.41 318.38-4.2 322.67-4.2 322.67 0 310.12 0 310.12-4.2 313.61-4.2 313.64-21.09 310.12-21.09 310.12-25.29 318.2-25.29 318.2-21.8Q318.64-22.58 319.19-23.25 319.74-23.93 320.41-24.43 321.09-24.93 321.9-25.21 322.72-25.49 323.67-25.49L323.67-25.49Q324.94-25.49 326.07-25.49 327.19-25.49 328.31-25.44L328.31-25.44ZM348.43 0L348.43-2.34Q346.99-1 345.24-0.15 343.5 0.71 341.27 0.71L341.27 0.71Q339.42 0.71 337.87 0.12 336.32-0.46 335.19-1.48 334.07-2.49 333.45-3.83 332.83-5.18 332.83-6.69L332.83-6.69Q332.83-8.3 333.3-9.55 333.78-10.79 334.57-11.71 335.37-12.62 336.43-13.24 337.49-13.87 338.65-14.25 339.81-14.62 341.02-14.78 342.23-14.94 343.32-14.94L343.32-14.94Q345.08-14.94 346.28-14.83 347.47-14.72 348.45-14.53L348.45-14.53 348.48-16.6Q348.48-17.94 348.09-18.93 347.69-19.92 346.99-20.57 346.28-21.22 345.29-21.53 344.3-21.85 343.08-21.85L343.08-21.85Q341.93-21.85 340.88-21.69 339.83-21.53 338.92-21.28 338-21.02 337.23-20.69 336.46-20.36 335.93-20L335.93-20 334.44-23.14Q335.34-23.73 336.42-24.23 337.49-24.73 338.67-25.09 339.86-25.44 341.09-25.65 342.32-25.85 343.52-25.85L343.52-25.85Q345.72-25.85 347.47-25.33 349.23-24.8 350.45-23.71 351.67-22.61 352.33-20.91 352.99-19.21 352.99-16.85L352.99-16.85 352.97-4.2 355.78-4.2 355.78 0 348.43 0ZM342.27-3.1L342.27-3.1Q343.18-3.1 344.08-3.32 344.98-3.54 345.79-3.92 346.6-4.3 347.28-4.8 347.96-5.3 348.43-5.83L348.43-5.83 348.45-11.55 343.18-11.55Q341.86-11.55 340.77-11.25 339.69-10.96 338.89-10.4 338.1-9.84 337.66-9.01 337.22-8.18 337.22-7.1L337.22-7.1Q337.22-6.1 337.59-5.36 337.95-4.61 338.62-4.11 339.3-3.61 340.22-3.36 341.15-3.1 342.27-3.1ZM360.56-12.65L360.56-12.65Q360.58-15.65 361.52-18.12 362.46-20.58 364.15-22.35 365.83-24.12 368.15-25.07 370.47-26.03 373.25-26.03L373.25-26.03Q376.06-26.03 378.39-25.07 380.72-24.12 382.38-22.38 384.04-20.63 384.97-18.16 385.9-15.7 385.9-12.7L385.9-12.7Q385.9-9.74 384.97-7.26 384.04-4.79 382.38-3 380.72-1.22 378.39-0.23 376.06 0.76 373.25 0.76L373.25 0.76Q370.4 0.76 368.08-0.22 365.76-1.2 364.1-2.97 362.44-4.74 361.51-7.2 360.58-9.67 360.56-12.65ZM365.37-12.65L365.37-12.65Q365.37-10.47 365.99-8.72 366.61-6.96 367.7-5.73 368.79-4.49 370.21-3.82 371.64-3.15 373.25-3.15L373.25-3.15Q374.94-3.15 376.39-3.81 377.84-4.47 378.92-5.7 379.99-6.93 380.6-8.69 381.21-10.45 381.21-12.65L381.21-12.65Q381.21-14.94 380.6-16.72 379.99-18.51 378.93-19.7 377.87-20.9 376.4-21.51 374.94-22.12 373.25-22.12L373.25-22.12Q371.64-22.12 370.21-21.51 368.79-20.9 367.7-19.7 366.61-18.51 365.99-16.72 365.37-14.94 365.37-12.65ZM408.99-25.44L408.99-19.95 404.35-19.95 404.35-21.51Q403.55-21.51 402.71-21.2 401.86-20.9 401.13-20.28 400.4-19.65 399.85-18.69 399.3-17.72 399.06-16.41L399.06-16.41 399.06-4.2 403.35-4.2 403.35 0 390.8 0 390.8-4.2 394.3-4.2 394.32-21.09 390.8-21.09 390.8-25.29 398.89-25.29 398.89-21.8Q399.33-22.58 399.87-23.25 400.42-23.93 401.1-24.43 401.77-24.93 402.58-25.21 403.4-25.49 404.35-25.49L404.35-25.49Q405.62-25.49 406.75-25.49 407.87-25.49 408.99-25.44L408.99-25.44ZM429.16-33.79L429.16-37.99 437.14-37.99 437.14-4.2 440.85-4.2 440.85 0 432.6 0 432.6-2.08Q431.38-0.83 429.77-0.13 428.16 0.56 426.1 0.56L426.1 0.56Q423.54 0.56 421.33-0.33 419.12-1.22 417.5-2.94 415.88-4.66 414.96-7.17 414.04-9.67 414.04-12.89L414.04-12.89Q414.04-15.82 414.92-18.23 415.8-20.63 417.41-22.33 419.02-24.02 421.3-24.96 423.57-25.9 426.35-25.9L426.35-25.9Q428.18-25.9 429.69-25.5 431.21-25.1 432.6-24.1L432.6-24.1 432.6-33.79 429.16-33.79ZM426.69-3.39L426.69-3.39Q428.72-3.39 430.08-3.99 431.45-4.59 432.6-5.79L432.6-5.79 432.6-19.95Q431.38-20.97 429.79-21.44 428.2-21.9 426.54-21.9L426.54-21.9Q424.93-21.9 423.52-21.3 422.1-20.7 421.04-19.56 419.98-18.41 419.37-16.75 418.76-15.09 418.76-12.94L418.76-12.94Q418.76-10.6 419.34-8.81 419.93-7.03 420.98-5.82 422.03-4.61 423.49-4 424.96-3.39 426.69-3.39ZM445-21.09L445-25.29 453.25-25.29 453.25-4.2 457.06-4.2 457.06 0 445.05 0 445.05-4.2 448.66-4.2 448.66-21.09 445-21.09ZM447.81-34.25L447.81-34.25Q447.81-34.89 448.06-35.46 448.32-36.04 448.75-36.46 449.17-36.89 449.76-37.15 450.35-37.4 451-37.4L451-37.4Q451.64-37.4 452.21-37.15 452.79-36.89 453.21-36.46 453.64-36.04 453.9-35.46 454.15-34.89 454.15-34.25L454.15-34.25Q454.15-33.59 453.9-33.01 453.64-32.42 453.21-31.97 452.79-31.52 452.21-31.26 451.64-31.01 451-31.01L451-31.01Q450.35-31.01 449.76-31.26 449.17-31.52 448.75-31.97 448.32-32.42 448.06-33.01 447.81-33.59 447.81-34.25ZM477.88 0L477.88-4.2 481.45-4.2 481.45-15.75Q481.45-18.65 479.97-20.15 478.49-21.66 475.73-21.66L475.73-21.66Q474.15-21.66 472.54-20.9 470.92-20.14 469.48-19.02L469.48-19.02 469.48-4.2 473.05-4.2 473.05 0 461.23 0 461.23-4.2 464.75-4.2 464.75-21.09 461.23-21.09 461.23-25.29 469.29-25.29 469.29-22.31 469.34-22.31Q470.14-23.02 471.06-23.66 471.97-24.29 472.97-24.76 473.98-25.22 475.06-25.49 476.15-25.76 477.35-25.76L477.35-25.76Q479.37-25.76 481.01-25.2 482.64-24.63 483.79-23.49 484.94-22.34 485.56-20.54 486.18-18.75 486.18-16.31L486.18-16.31 486.18-4.2 489.7-4.2 489.7 0 477.88 0ZM509.45 0L509.45-2.34Q508.01-1 506.26-0.15 504.52 0.71 502.29 0.71L502.29 0.71Q500.44 0.71 498.89 0.12 497.34-0.46 496.21-1.48 495.09-2.49 494.47-3.83 493.85-5.18 493.85-6.69L493.85-6.69Q493.85-8.3 494.32-9.55 494.8-10.79 495.59-11.71 496.39-12.62 497.45-13.24 498.51-13.87 499.67-14.25 500.83-14.62 502.04-14.78 503.25-14.94 504.34-14.94L504.34-14.94Q506.1-14.94 507.3-14.83 508.49-14.72 509.47-14.53L509.47-14.53 509.5-16.6Q509.5-17.94 509.11-18.93 508.71-19.92 508.01-20.57 507.3-21.22 506.31-21.53 505.32-21.85 504.1-21.85L504.1-21.85Q502.95-21.85 501.9-21.69 500.85-21.53 499.94-21.28 499.02-21.02 498.25-20.69 497.48-20.36 496.95-20L496.95-20 495.46-23.14Q496.36-23.73 497.44-24.23 498.51-24.73 499.69-25.09 500.88-25.44 502.11-25.65 503.34-25.85 504.54-25.85L504.54-25.85Q506.74-25.85 508.49-25.33 510.25-24.8 511.47-23.71 512.69-22.61 513.35-20.91 514.01-19.21 514.01-16.85L514.01-16.85 513.99-4.2 516.8-4.2 516.8 0 509.45 0ZM503.29-3.1L503.29-3.1Q504.2-3.1 505.1-3.32 506-3.54 506.81-3.92 507.62-4.3 508.3-4.8 508.98-5.3 509.45-5.83L509.45-5.83 509.47-11.55 504.2-11.55Q502.88-11.55 501.79-11.25 500.71-10.96 499.91-10.4 499.12-9.84 498.68-9.01 498.24-8.18 498.24-7.1L498.24-7.1Q498.24-6.1 498.61-5.36 498.97-4.61 499.64-4.11 500.32-3.61 501.24-3.36 502.17-3.1 503.29-3.1ZM540.11-25.44L540.11-19.95 535.47-19.95 535.47-21.51Q534.66-21.51 533.82-21.2 532.98-20.9 532.25-20.28 531.51-19.65 530.97-18.69 530.42-17.72 530.17-16.41L530.17-16.41 530.17-4.2 534.47-4.2 534.47 0 521.92 0 521.92-4.2 525.41-4.2 525.44-21.09 521.92-21.09 521.92-25.29 530-25.29 530-21.8Q530.44-22.58 530.99-23.25 531.54-23.93 532.21-24.43 532.88-24.93 533.7-25.21 534.52-25.49 535.47-25.49L535.47-25.49Q536.74-25.49 537.86-25.49 538.99-25.49 540.11-25.44L540.11-25.44ZM543.67-21.09L543.67-25.29 553.27-25.29 553.27-21.09 550.26-21.09 556.19-4.96 562.4-21.09 559.42-21.09 559.42-25.29 569.01-25.29 569.01-21.09 566.4-21.09 555.15 7.3 558.61 7.3 558.61 11.5 548.41 11.5 548.41 7.3 551.48 7.3 554.17 0.34 545.72-21.09 543.67-21.09ZM568.72-2.95L568.72-2.95Q568.72-3.59 568.97-4.16 569.23-4.74 569.67-5.16 570.11-5.59 570.68-5.85 571.26-6.1 571.92-6.1L571.92-6.1Q572.55-6.1 573.12-5.85 573.7-5.59 574.12-5.16 574.55-4.74 574.81-4.16 575.06-3.59 575.06-2.95L575.06-2.95Q575.06-2.29 574.81-1.71 574.55-1.12 574.12-0.67 573.7-0.22 573.12 0.04 572.55 0.29 571.92 0.29L571.92 0.29Q571.26 0.29 570.68 0.04 570.11-0.22 569.67-0.67 569.23-1.12 568.97-1.71 568.72-2.29 568.72-2.95Z" opacity="1" transform="matrix(1,0,0,1,0,0)" fill="#ffffff" class="slogan-text-1" data-fill-palette-color="secondary" id="text-1"></path></svg></g></svg></g></svg></g></svg></g><g transform="matrix(1,0,0,1,75.54431999999998,0)"><svg viewBox="0 0 244.43135999999996 128.5597000305343" height="128.5597000305343" width="244.43135999999996"><g><svg xmlns="http://www.w3.org/2000/svg" xmlns:xlink="http://www.w3.org/1999/xlink" version="1.1" x="0" y="0" viewBox="17.249000000000006 32.775000000000006 65.5 34.44999999999999" enable-background="new 0 0 100 100" xml:space="preserve" height="128.5597000305343" width="244.43135999999996" class="icon-icon-0" data-fill-palette-color="accent" id="icon-0"><path d="M75.25 63.332h6.022c0.814 0 1.477-0.662 1.477-1.477s-0.662-1.477-1.477-1.477h-7.237c-0.247-12.021-9.354-21.897-21.046-23.354 0.122-0.341 0.192-0.699 0.192-1.067 0-1.754-1.428-3.182-3.182-3.182s-3.182 1.428-3.182 3.182c0 0.368 0.07 0.727 0.191 1.067-11.69 1.458-20.798 11.334-21.045 23.354h-7.237c-0.814 0-1.477 0.662-1.477 1.477s0.662 1.477 1.477 1.477h6.022c0.252 2.185 2.091 3.893 4.342 3.893h41.814C73.158 67.225 74.998 65.517 75.25 63.332zM47.818 35.957c0-1.203 0.979-2.182 2.182-2.182s2.182 0.979 2.182 2.182c0 0.339-0.099 0.66-0.248 0.96-0.639-0.052-1.282-0.085-1.934-0.085-0.182 0-0.361 0.01-0.542 0.014-0.044-0.209-0.075-0.424-0.075-0.648 0-0.413 0.08-0.818 0.231-1.172 0.109-0.254-0.008-0.548-0.262-0.656-0.252-0.112-0.548 0.007-0.656 0.262-0.205 0.477-0.313 1.019-0.313 1.566 0 0.235 0.021 0.466 0.059 0.69-0.126 0.009-0.251 0.019-0.376 0.029C47.917 36.618 47.818 36.297 47.818 35.957zM50 37.832c12.541 0 22.768 10.069 23.035 22.547H29.621c0.244-5.698 2.55-11.062 6.55-15.141 0.193-0.196 0.189-0.514-0.008-0.707-0.196-0.192-0.513-0.19-0.707 0.008-4.183 4.266-6.591 9.878-6.836 15.84h-1.655C27.232 47.901 37.459 37.832 50 37.832zM18.251 61.855c0-0.263 0.214-0.477 0.477-0.477h62.545c0.263 0 0.477 0.214 0.477 0.477s-0.214 0.477-0.477 0.477H18.728C18.465 62.332 18.251 62.118 18.251 61.855zM25.75 63.332h48.5c-0.244 1.633-1.643 2.893-3.344 2.893H29.092C27.392 66.225 25.994 64.965 25.75 63.332z" fill="#ffffff" data-fill-palette-color="accent"></path></svg></g></svg></g><g></g></svg></g><defs></defs></svg><rect width="395.5199999999999" height="307.2246064259979" fill="none" stroke="none" visibility="hidden"></rect></g></svg></g></svg>